<?xml version="1.0" encoding="UTF-8"?>
<svg id="Layer_1" data-name="Layer 1" xmlns="http://www.w3.org/2000/svg" viewBox="0 0 500 500">
  <defs>
    <style>
      .cls-1 {
        fill: none;
      }

      .cls-2 {
        fill: #8fc859;
      }
    </style>
  </defs>
  <g>
    <path class="cls-2" d="M194.27,207.08c-25.4,43.15-4.55,77.68,2.41,87.23-8.51,15.66-15.07,32.88-17.37,50.97-.25,1.98.3,3.98,1.52,5.56,1.22,1.58,3.02,2.6,5,2.86,1.98.25,3.98-.3,5.56-1.52,1.58-1.22,2.6-3.02,2.86-5,8.13-64.22,79.03-119.71,79.75-120.26,1.49-1.25,2.44-3.03,2.64-4.96.21-1.93-.34-3.87-1.53-5.41-1.19-1.54-2.92-2.56-4.85-2.85-1.92-.29-3.88.18-5.47,1.3-2.06,1.59-35.01,27.36-59.59,65.05-6.56-11.25-15.62-35.34,2.04-65.33,10.99-18.69,28.11-21.66,47.94-25.1,14.55-2.52,30.68-5.32,45.17-15.11,4.65,22.26,11.78,72.1-9.56,101.43-10.64,14.63-27.54,22.42-50.23,23.14-1.94.11-3.77.96-5.09,2.38-1.33,1.42-2.05,3.31-2.02,5.25.03,1.95.81,3.8,2.18,5.18,1.37,1.38,3.22,2.18,5.17,2.22h.24c27.59-.87,48.43-10.75,61.95-29.35,32.25-44.41,10.07-122.47,9.12-125.77-.36-1.25-1.05-2.39-1.98-3.3-.94-.91-2.09-1.56-3.35-1.88-1.26-.33-2.59-.32-3.85.02-1.26.34-2.41,1-3.33,1.92-13.35,13.21-29.68,16.05-46.98,19.04-21.54,3.73-43.81,7.59-58.34,32.29Z"/>
    <path class="cls-2" d="M187.01,397.68c1.84.78,3.91.8,5.76.05,1.85-.75,3.33-2.19,4.11-4.03.39-.91.59-1.89.6-2.87,0-.99-.18-1.97-.54-2.88-.37-.92-.92-1.75-1.61-2.46-.69-.71-1.52-1.27-2.43-1.65-59.31-25.27-94.51-85.35-87.6-149.51,7.9-73.38,69.35-128.23,141.27-129.88l-18.58,14.97c-1.51,1.27-2.47,3.07-2.66,5.04-.19,1.96.39,3.92,1.63,5.46,1.24,1.54,3.03,2.53,4.99,2.76,1.96.23,3.93-.32,5.49-1.53l34.21-27.55c.77-.62,1.41-1.38,1.89-2.25.47-.87.77-1.82.88-2.8.11-.98.02-1.98-.26-2.93-.28-.95-.74-1.83-1.36-2.6l-27.56-34.21c-1.27-1.49-3.08-2.43-5.03-2.61-1.95-.18-3.9.4-5.42,1.63-1.53,1.23-2.51,3-2.75,4.95-.24,1.94.29,3.91,1.48,5.47l16.98,21.08c-81.18-.31-151.27,60.98-160.14,143.4-7.63,70.79,31.22,137.09,96.66,164.97ZM305.72,115.41c59.28,24.51,95.88,86.24,89.01,150.1-7.91,73.38-69.39,128.18-141.27,129.86l18.58-14.96c1.51-1.27,2.47-3.07,2.66-5.04.19-1.96-.39-3.92-1.63-5.46-1.24-1.54-3.03-2.53-4.99-2.76-1.96-.23-3.93.32-5.49,1.53l-34.22,27.55c-.77.62-1.41,1.38-1.89,2.25-.47.87-.77,1.82-.88,2.8-.11.98-.02,1.98.26,2.93.28.95.74,1.83,1.36,2.6l27.56,34.21c.62.77,1.38,1.41,2.25,1.89.87.48,1.82.77,2.8.88.98.11,1.98.02,2.93-.26.95-.28,1.83-.74,2.6-1.37,3.24-2.61,3.75-7.35,1.14-10.58l-16.99-21.09c.2,0,.4.02.6.02,80.9,0,150.7-61.18,159.56-143.4,7.58-70.46-32.81-138.57-98.22-165.62-1.84-.71-3.88-.68-5.69.09-1.81.77-3.25,2.23-4,4.05-.75,1.82-.76,3.86-.03,5.69.74,1.83,2.16,3.29,3.96,4.08Z"/>
  </g>
  <rect class="cls-1" width="500" height="500"/>
</svg>