<?xml version="1.0" encoding="UTF-8"?>
<svg id="Layer_1" data-name="Layer 1" xmlns="http://www.w3.org/2000/svg" viewBox="0 0 500 500">
  <defs>
    <style>
      .cls-1 {
        fill: none;
      }

      .cls-2 {
        opacity: .61;
      }

      .cls-3 {
        fill: #a4ba8d;
        opacity: .5;
      }

      .cls-4 {
        fill: #8fc859;
      }

      .cls-5 {
        fill: #1a4222;
      }

      .cls-6 {
        fill: #f7f9fc;
      }
    </style>
  </defs>
  <g>
    <path class="cls-3" d="M452.47,259.39V78.32c0-8.58-6.91-15.49-15.49-15.49H63.08c-8.58,0-15.49,6.91-15.49,15.49v256.64c0,4.29,1.78,8.19,4.57,10.98l11.26,3.96c108.84.22,217.74.39,326.58.61"/>
    <path class="cls-4" d="M56.11,63.66l-4.85,4.74,48.37,49.71,4.9-4.74-48.37-49.71h-.06Z"/>
    <path class="cls-4" d="M389.88,354.08l-327.19-.61-12.48-4.46-.5-.5c-3.62-3.62-5.57-8.3-5.57-13.37V78.38c0-10.48,8.53-18.95,18.95-18.95h373.84c10.48,0,18.95,8.47,18.95,18.95v181.07h-6.8V78.38c0-6.69-5.41-12.09-12.09-12.09H63.08c-6.69,0-12.09,5.41-12.09,12.09v256.64c0,3.01,1.06,5.8,3.07,8.02l9.92,3.51,325.97.61v6.8h-.11l.06.11Z"/>
    <path class="cls-4" d="M100.08,295.34l-51.27,46.54,4.57,5.01,51.27-46.53-4.57-5.02Z"/>
    <path class="cls-4" d="M446,65l-59.97,49.15,4.29,5.24,59.97-49.15-4.29-5.24Z"/>
    <path class="cls-3" d="M383.14,114.71H106.22c-4.07,0-7.3,3.29-7.3,7.3v174.66c0,4.07,3.29,7.3,7.3,7.3h276.92c4.07,0,7.3-3.29,7.3-7.3V122.01c0-4.07-3.29-7.3-7.3-7.3Z"/>
    <path class="cls-4" d="M378.74,307.38H110.56c-8.3,0-15.1-6.8-15.1-15.1V126.31c0-8.3,6.8-15.1,15.1-15.1h268.18c8.3,0,15.1,6.8,15.1,15.1v165.97c0,8.3-6.8,15.1-15.1,15.1ZM110.56,118.11c-4.57,0-8.3,3.73-8.3,8.3v165.97c0,4.57,3.73,8.3,8.3,8.3h268.18c4.57,0,8.3-3.73,8.3-8.3V126.42c0-4.57-3.73-8.3-8.3-8.3H110.56Z"/>
    <path class="cls-4" d="M389.88,353.35v-5.46h46.48c7.41,0,13.32-6.02,13.32-13.32v-77.19h5.52v77.19c0,10.42-8.42,18.84-18.84,18.84h-46.48v-.06Z"/>
    <g class="cls-2">
      <path class="cls-6" d="M391,349.9c11.42-15.27,23.02-31.26,34.61-47.82,8.75-12.54,17.11-24.97,25.19-37.23l-.89-1.78c-18.84-.61-37.62-1.17-56.46-1.78-4.29,1.06-13.21,3.9-21.12,11.7-4.79,4.68-7.58,9.7-9.14,13.15,0,3.62-.22,12.48-.22,16.11-.11,8.19-.28,18.39-.33,26.53"/>
      <path class="cls-4" d="M393.12,351.51l-4.4-3.29c11.76-15.66,23.35-31.71,34.55-47.76,7.97-11.42,15.88-23.13,23.52-34.78l-53.17-1.67c-5.29,1.39-12.82,4.29-19.51,10.92-3.46,3.4-6.3,7.36-8.36,11.82l-.22,15.49c-.11,8.19-.28,18.39-.33,26.53h-5.52c.11-8.25.28-18.45.33-26.58l.22-16.66.28-.5c2.4-5.24,5.68-9.92,9.75-13.93,7.75-7.64,16.44-10.98,22.35-12.43h.39l58.41,1.78,2.4,4.57-.89,1.39c-8.25,12.48-16.66,25.02-25.25,37.34-11.2,16.11-22.85,32.21-34.66,47.93h.06l.06-.17Z"/>
    </g>
    <path class="cls-4" d="M359.23,327.6l5.69-43.92s8.25-14.99,18.73.39l7.58,46.93,3.73,15.27-8.81,28.31c8.36,12.87,16.66,25.75,25.08,38.62-15.16,8.81-30.26,17.72-45.48,26.53-21.85-32.27-43.69-64.59-65.49-96.86-.39-5.91-.22-14.04,2.62-23.18,6.3-20.79,21.34-32.38,27.09-36.28,8.36-.84,16.72-1.62,25.13-2.51.33,0,7.19.72,8.81,4.85,1.62,4.12-2.12,11.31-10.81,13.99-4.29,2.23-8.69,4.46-13.04,6.69l-1,8.42,20.23,12.82h-.06v-.06Z"/>
    <path class="cls-5" d="M364.47,440.57l-65.71-97.19v-.39c-.61-8.08.33-16.16,2.62-23.74,5.96-19.78,19.9-31.71,27.59-37.12l.33-.22,25.64-2.51h.11c.67.06,5.68.61,8.58,3.51.28-.5,4.01-6.97,9.92-7.25,3.9-.22,7.69,2.34,11.26,7.58l.22.28,7.64,47.26,3.79,15.55-8.75,28.03,24.63,38.06-2.51,1.62-25.36-39.23,8.97-28.59-3.68-14.88-7.58-46.7c-2.9-4.12-5.68-6.13-8.53-6.02-3.85.22-6.74,4.51-7.41,5.57l-5.96,45.92-22.96-14.49,1.17-10.14,13.93-7.13c4.29-1.28,7.75-3.96,9.31-7.3.84-1.78,1.06-3.46.5-4.68-1.06-2.68-5.63-3.73-7.47-3.9l-24.58,2.4c-7.52,5.24-20.56,16.66-26.14,35.28-2.17,7.19-3.01,14.66-2.56,22.29l65.26,96.53-2.4,1.62h.11ZM340.62,314.06l17.44,11.03,3.73-28.98c-2.12,2.17-4.96,3.9-8.25,4.96l-12.21,6.3-.78,6.74h.06v-.06Z"/>
  </g>
  <rect class="cls-1" width="500" height="500"/>
</svg>