<?xml version="1.0" encoding="UTF-8"?>
<svg id="Layer_1" data-name="Layer 1" xmlns="http://www.w3.org/2000/svg" viewBox="0 0 500 500">
  <defs>
    <style>
      .cls-1 {
        fill: none;
      }

      .cls-2 {
        fill: #8fc859;
      }
    </style>
  </defs>
  <g>
    <rect class="cls-1" x="66.5" y="66.5" width="366.99" height="366.99"/>
    <g>
      <g>
        <g>
          <g>
            <path class="cls-2" d="M358.24,129.13c0-18.2,0-36.39,0-54.59,0-3.24,1.64-5.17,4.34-5.17,2.69,0,4.38,1.94,4.37,5.16-.15,36.4-.31,72.79-.48,109.19-.02,3.22-1.75,5.14-4.47,5.07-2.69-.07-3.77-2.02-3.77-5.28,0-18.12,0-36.25,0-54.37.16,0-.16,0,0,0Z"/>
            <path class="cls-2" d="M362.17,191.65h-.25c-1.96-.04-6.55-.94-6.55-8.14v-108.96c0-4.8,2.9-8.04,7.21-8.04,1.98,0,3.72.69,5.03,1.99,1.46,1.47,2.22,3.55,2.21,6.05l-.48,109.19c-.01,2.5-.81,4.58-2.3,6.03-1.28,1.24-2.97,1.89-4.87,1.89ZM361.11,132v51.51c0,2.58.58,2.45,1.05,2.41.6,0,.83-.21.9-.28.35-.34.55-1.03.55-1.93l.48-109.19c0-.91-.19-1.62-.54-1.97-.08-.08-.31-.31-.96-.31-.52,0-1.48,0-1.48,2.31v57.45Z"/>
          </g>
          <g>
            <path class="cls-2" d="M329.87,178.3c10.73,10.42,21.1,20.5,31.62,30.72,3.57-3.34,7.08-6.61,10.58-9.89,7.61-7.15,15.18-14.36,22.87-21.42,1.08-1,2.85-1.93,4.18-1.79,1.3.14,2.83,1.47,3.55,2.69,1.03,1.73.24,3.54-1.22,4.92-3.87,3.67-7.76,7.32-11.64,10.97-8.15,7.65-16.3,15.3-24.45,22.94-2.95,2.77-4.97,2.74-7.91-.12-11.68-11.36-23.35-22.72-35.03-34.08-2.57-2.5-2.55-5.98.08-7.41.25-.15.57-.26.93-.34,1.84-.41,3.76.21,5.12,1.53.3.29.71.69,1.32,1.28Z"/>
            <path class="cls-2" d="M361.44,222.36c-1.98,0-3.95-1-6-2.99l-35.02-34.08c-2.04-1.98-3.05-4.63-2.71-7.08.29-2.09,1.55-3.88,3.43-4.89.41-.25,1.03-.48,1.68-.63,2.77-.64,5.66.22,7.74,2.28l30.98,30.09,13.9-13.05c5.84-5.5,11.67-11,17.57-16.43,1.44-1.32,3.84-2.7,6.41-2.53,2.44.28,4.67,2.31,5.72,4.08,1.61,2.71.96,5.96-1.7,8.48l-36.11,33.92c-2,1.88-3.94,2.82-5.88,2.82ZM324.56,178.23c-.17,0-.34.01-.5.06-.48.22-.63.41-.66.71-.07.48.16,1.34,1.03,2.2l35.01,34.07c1.88,1.84,2.15,1.79,3.96.09l36.09-33.9c.1-.09.97-.94.72-1.38-.37-.63-1.14-1.23-1.46-1.31-.22.01-1.18.43-1.87,1.06-5.88,5.4-11.69,10.89-17.51,16.36l-17.93,16.8-34.84-33.86c-.59-.59-1.33-.9-2.04-.9Z"/>
          </g>
        </g>
        <g>
          <g>
            <path class="cls-2" d="M244.92,129.13c0-18.2,0-36.39,0-54.59,0-3.24,1.64-5.17,4.34-5.17,2.69,0,4.38,1.94,4.37,5.16-.15,36.4-.31,72.79-.48,109.19-.02,3.22-1.75,5.14-4.47,5.07-2.69-.07-3.77-2.02-3.77-5.28,0-18.12,0-36.25,0-54.37.16,0-.16,0,0,0Z"/>
            <path class="cls-2" d="M248.85,191.65h-.25c-1.96-.04-6.55-.94-6.55-8.14v-108.96c0-4.8,2.9-8.04,7.21-8.04,1.98,0,3.72.69,5.03,1.99,1.46,1.47,2.22,3.55,2.21,6.05l-.48,108.94c-.01,2.74-.8,4.83-2.28,6.27-1.29,1.24-2.97,1.89-4.88,1.89ZM247.79,132v51.51c0,2.58.64,2.45,1.05,2.41.62,0,.83-.21.91-.28.34-.32.54-1.03.54-1.93l.48-109.19c0-.91-.19-1.62-.54-1.97-.08-.08-.31-.31-.96-.31-.52,0-1.48,0-1.48,2.31v57.45Z"/>
          </g>
          <g>
            <path class="cls-2" d="M216.55,178.3c10.73,10.42,21.1,20.5,31.62,30.72,3.57-3.34,7.08-6.61,10.58-9.89,7.61-7.15,15.18-14.36,22.87-21.42,1.08-1,2.85-1.93,4.18-1.79,1.3.14,2.83,1.47,3.55,2.69,1.03,1.73.24,3.54-1.22,4.92-3.87,3.67-7.76,7.32-11.64,10.97-8.15,7.65-16.3,15.3-24.45,22.94-2.95,2.77-4.97,2.74-7.91-.12-11.68-11.36-23.35-22.72-35.03-34.08-2.57-2.5-2.55-5.98.08-7.41.25-.15.57-.26.93-.34,1.84-.41,3.76.21,5.12,1.53.3.29.71.69,1.32,1.28Z"/>
            <path class="cls-2" d="M248.12,222.36c-1.98,0-3.95-1-6-2.99l-35.02-34.08c-2.04-1.98-3.05-4.63-2.71-7.08.29-2.09,1.55-3.88,3.43-4.89.43-.26,1.05-.49,1.71-.63,2.69-.63,5.6.22,7.72,2.28l30.97,30.09,14.78-13.87c5.53-5.23,11.08-10.45,16.69-15.61,1.44-1.32,3.85-2.7,6.41-2.53,2.43.28,4.67,2.31,5.72,4.08,1.61,2.71.96,5.96-1.7,8.48l-36.11,33.92c-2,1.88-3.94,2.82-5.88,2.82ZM211.26,178.23c-.17,0-.34.01-.5.06-.49.22-.64.41-.67.71-.07.48.16,1.34,1.03,2.2l35.02,34.08c1.86,1.81,2.14,1.78,3.95.08l36.09-33.9c.1-.09.97-.94.72-1.38-.37-.63-1.14-1.23-1.46-1.31-.22.01-1.18.43-1.87,1.06-5.59,5.13-11.11,10.34-16.63,15.55l-18.8,17.62-34.86-33.89c-.57-.56-1.3-.86-2-.86Z"/>
          </g>
        </g>
        <g>
          <g>
            <path class="cls-2" d="M131.6,129.13c0-18.2,0-36.39,0-54.59,0-3.24,1.64-5.17,4.34-5.17,2.69,0,4.38,1.94,4.37,5.16-.15,36.4-.31,72.79-.48,109.19-.02,3.22-1.75,5.14-4.47,5.07-2.69-.07-3.77-2.02-3.77-5.28,0-18.12,0-36.25,0-54.37.16,0-.16,0,0,0Z"/>
            <path class="cls-2" d="M135.53,191.65h-.25c-1.96-.06-6.55-.94-6.55-8.14v-108.96c.01-4.82,2.91-8.04,7.21-8.04,1.98,0,3.72.69,5.03,1.99,1.46,1.47,2.22,3.55,2.21,6.05-.15,36.4-.3,72.79-.48,109.19-.01,2.5-.8,4.58-2.28,6.03-1.29,1.24-2.97,1.89-4.88,1.89ZM134.47,132v51.51c0,2.59.6,2.44,1.05,2.41.62,0,.83-.21.91-.28.34-.32.54-1.03.54-1.93.18-36.4.34-72.79.48-109.19,0-.91-.19-1.62-.54-1.97-.08-.08-.31-.31-.96-.31-.52,0-1.47,0-1.48,2.32v57.44Z"/>
          </g>
          <g>
            <path class="cls-2" d="M103.24,178.3c10.73,10.42,21.1,20.5,31.62,30.72,3.57-3.34,7.08-6.61,10.58-9.89,7.61-7.15,15.18-14.36,22.87-21.42,1.08-1,2.85-1.93,4.18-1.79,1.3.14,2.83,1.47,3.55,2.69,1.03,1.73.24,3.54-1.22,4.92-3.87,3.67-7.76,7.32-11.64,10.97-8.15,7.65-16.3,15.3-24.45,22.94-2.95,2.77-4.97,2.74-7.91-.12-11.68-11.36-23.35-22.72-35.03-34.08-2.57-2.5-2.55-5.98.08-7.41.25-.15.57-.26.93-.34,1.84-.41,3.76.21,5.12,1.53.3.29.71.69,1.32,1.28Z"/>
            <path class="cls-2" d="M134.82,222.36c-1.98,0-3.96-1-6-2.99l-35.03-34.08c-2.04-1.98-3.05-4.64-2.7-7.08.29-2.09,1.55-3.88,3.44-4.89.43-.26,1.03-.49,1.69-.63,2.76-.64,5.61.24,7.72,2.28l30.97,30.08,14.78-13.85c5.53-5.23,11.08-10.45,16.69-15.61,1.44-1.32,4.01-2.7,6.41-2.53,2.44.28,4.68,2.31,5.73,4.08,1.6,2.71.94,5.96-1.71,8.48l-36.11,33.92c-2,1.88-3.94,2.82-5.87,2.82ZM97.96,178.23c-.18,0-.36.01-.53.06-.49.24-.64.43-.67.72-.07.47.16,1.33,1.03,2.18l35.02,34.07c1.84,1.8,2.14,1.81,3.95.09l36.09-33.9c.1-.1.99-.95.73-1.39-.37-.62-1.14-1.22-1.47-1.3-.22.01-1.19.43-1.87,1.06-5.59,5.13-11.11,10.34-16.63,15.55l-18.78,17.62-34.89-33.89c-.58-.56-1.29-.86-1.98-.86Z"/>
          </g>
        </g>
      </g>
      <path class="cls-2" d="M412.62,264.2H87.38c-11.47,0-20.87,9.29-20.87,20.87v115.49c0,11.58,9.4,20.87,20.87,20.87h325.25c11.58,0,20.87-9.29,20.87-20.87v-115.49c0-11.58-9.29-20.87-20.87-20.87ZM416.41,397.7c0,4.7-1.26,6.08-5.96,6.08H86.12c-4.01,0-5.5-1.49-5.5-5.62v-113.31c0-4.47,1.38-5.73,5.73-5.73h323.87c5.05,0,6.19,1.15,6.19,6.19v112.39Z"/>
      <rect class="cls-2" x="92.31" y="290.46" width="312.4" height="13.31"/>
      <path class="cls-2" d="M362.43,375.17c-1.16,0-2.33-.52-3.37-1.48l-15.1-14.41c-3.6-3.46-7.84-5.29-12.27-5.29s-8.9,1.92-12.59,5.53l-13.42,13.19c-1.04,1.08-2.18,1.61-3.35,1.61-1.25,0-2.51-.59-3.63-1.71l-4.2-4.22c-3.02-3.05-6.08-6.13-9.13-9.09-3.14-3.15-7.35-4.89-11.82-4.89s-8.81,1.78-12.05,5.03l-12.53,12.98c-.81.83-2.06,1.8-3.58,1.8s-2.86-1-3.68-1.83l-13.08-13.19c-3.12-3.18-7.5-5.03-12.02-5.03-4.28,0-8.32,1.61-11.37,4.52-3.32,3.07-6.61,6.29-9.89,9.51l-3.66,3.58c-.82.76-1.93,1.2-3.08,1.2s-2.27-.45-3.1-1.28c-2.72-2.64-5.31-5.26-7.91-7.87l-4.48-4.51c-3.25-3.25-7.53-5.04-12.06-5.04s-8.55,1.69-11.69,4.78c-2.54,2.48-5.01,5-7.46,7.52l-4.6,4.67c-.8.8-2.07,1.74-3.6,1.74s-2.8-.94-3.6-1.74c-4.5-4.5-8.48-8.48-12.55-12.33-3.11-2.99-7.24-4.66-11.58-4.66-5.06,0-9.81,2.26-13.03,6.19-.21.26-.44.52-.65.77v-12.96c6.05,0,12.01,0,18.07-.11,0,0,51.78.08,71.85.08s71.68-.08,71.68-.08c16.34.06,32.68.06,49.03.06s32.68,0,49.02.06c.75,0,1.51,0,2.28-.26l6.55.1v1.95l4.1-1.96,24.81.06v5.97l4.32-5.97h10.7v14.21c-1.97-2.84-5.97-5.61-9.92-6.85-1.33-.52-2.95-.8-4.66-.8-4.38,0-8.76,1.87-11.7,5l-12.63,13.79c-.99,1.1-2.14,1.67-3.36,1.67Z"/>
      <polygon class="cls-2" points="92.31 333.59 92.31 318.56 404.79 318.56 404.82 333.59 92.31 333.59"/>
      <path class="cls-2" d="M92.28,392.08v-.93c-.02-2.45-.06-4.88.02-7.36l5.97-6.79,5.67-7.1c.37-.43,1.16-1.23,2.02-1.23.72,0,1.41.55,1.87,1.01l3.42,3.27c2.86,2.71,5.69,5.39,8.29,8.3,3.45,3.84,8.61,6.05,14.17,6.05s11.09-2.34,14.57-6.42c2.35-2.83,4.95-5.33,7.54-7.84l3.21-3.14c.53-.53,1.32-1.16,2.06-1.16.8,0,1.67.71,2.25,1.29l11.58,11.69c3.8,3.73,8.67,5.77,13.72,5.77s9.63-1.96,13.26-5.53c4.21-3.98,8.35-8,12.49-12.03.62-.62,1.5-1.33,2.3-1.33s1.68.72,2.27,1.31l12.35,12.59c3.94,4.01,8.95,6.2,14.09,6.2s10.14-2.21,14.01-6.2l11.92-12.26c.6-.66,1.43-1.38,2.21-1.38.63,0,1.43.48,2.28,1.37,4.39,4.28,8.72,8.61,12.94,13.05,3.56,3.56,8.48,5.58,13.57,5.58s9.65-1.87,13.1-5.26c4.69-4.47,9.3-9.07,13.9-13.67.63-.65,1.51-1.38,2.36-1.38.81,0,1.66.65,2.23,1.2l4.82,4.57c3.43,3.25,6.83,6.47,10.18,9.74,3.75,3.63,8.53,5.62,13.46,5.62,5.48,0,10.61-2.37,14.43-6.69,1.94-2.16,9.86-10.76,11.82-12.95.54-.57,1.21-.92,1.83-.92.81,0,1.46.58,1.86,1.06l1.02,1.21c3.67,4.41,7.43,8.91,10.98,13.42.25.29.47.82.55,1.51.06,1.65.02,3.55,0,5.5v.27H92.28Z"/>
    </g>
  </g>
  <rect class="cls-1" width="500" height="500"/>
</svg>