<?xml version="1.0" encoding="UTF-8"?>
<svg id="Layer_1" data-name="Layer 1" xmlns="http://www.w3.org/2000/svg" xmlns:xlink="http://www.w3.org/1999/xlink" viewBox="0 0 500 500">
  <defs>
    <style>
      .cls-1 {
        fill: none;
      }

      .cls-2 {
        fill: #91c959;
      }

      .cls-3 {
        clip-path: url(#clippath);
      }
    </style>
    <clipPath id="clippath">
      <rect class="cls-1" x="157.07" y="181.19" width="222.67" height="139.77"/>
    </clipPath>
  </defs>
  <g>
    <g id="Layer_1-2" data-name="Layer_1">
      <path class="cls-2" d="M384.58,129.72c-30.73-30.84-73.27-49.88-120.17-49.88-16.27,0-31.8,2.34-46.47,6.49-15.42,4.25-29.88,10.74-43.07,19.04-4.15,2.34-5.21,7.76-2.77,11.91,2.55,3.83,7.76,5.1,11.8,2.77,11.91-7.34,24.89-13.19,38.5-17.12,13.4-3.62,27.22-5.85,42.01-5.85,42.11,0,80.4,17.33,108.05,44.77,27.65,27.76,44.77,65.94,44.77,108.15s-17.12,80.4-44.77,108.05c-27.65,27.76-65.94,44.77-108.05,44.77s-80.5-17.02-108.15-44.77c-25.74-25.74-42.33-60.51-44.56-99.43h1.81c14.68,0,26.8-11.91,26.8-26.59v-39.35c0-4.79-3.93-8.61-8.72-8.61h-2.55v-25.74c0-4.79-3.93-8.72-8.61-8.72s-8.72,3.93-8.72,8.72v25.74h-17.87v-25.74c0-4.79-3.93-8.72-8.72-8.72s-8.61,3.93-8.61,8.72v25.74h-2.34c-4.79,0-8.72,3.83-8.72,8.61v39.35c0,14.68,12.12,26.59,26.8,26.59h2.23c2.13,43.71,20.74,82.84,49.45,111.77,30.95,30.73,73.27,49.77,120.49,49.77s89.44-19.04,120.17-49.77c30.95-30.95,49.98-73.27,49.98-120.38s-19.04-89.54-49.98-120.28ZM92.23,241.28c-5.1,0-9.47-4.04-9.47-9.25v-30.73h40.2v30.73c0,5.21-4.36,9.25-9.47,9.25h-21.27Z"/>
    </g>
    <g class="cls-3">
      <g>
        <path class="cls-2" d="M242.13,307.46c-.26,0-.53,0-.8-.01h-.66c-.76-.01-1.56-.01-2.32-.06l-2.19-.14c-.66-.04-1.33-.13-2.05-.21-1.06-.14-1.77-.24-2.53-.39l-.62-.12c-.53-.1-1.06-.2-1.6-.35l-1.33-.32s-.58-.13-.58-.14c-.53-.12-1.14-.31-1.72-.48-.99-.31-1.59-.54-2.21-.77l-1.96-.8c-.63-.26-1.28-.58-1.87-.9l-1.15-.62c-1.13-.62-1.63-2.09-1.01-3.22.63-1.13,1.97-1.59,3.09-.97l1.24.67c.53.28,1.01.53,1.5.73l1.7.69c.65.25,1.17.44,1.68.6.85.26,1.33.42,1.77.52l2.06.49c.43.12.83.18,1.25.26l.69.13c.64.13,1.25.21,1.95.3.87.11,1.45.18,2.03.22l2.19.14c.64.05,1.39.09,2.01.04h.76c.44.02.85.04,1.24,0l.76-.04c.42-.02.85-.04,1.29-.09.91-.12,1.6-.2,2.29-.25.4-.02.8-.09,1.18-.15l.81-.12c.52-.07,1.02-.17,1.55-.28,1.01-.21,1.61-.33,2.22-.51l1.92-.56c.6-.17,1.15-.34,1.71-.55l1.78-.71c.52-.2.99-.39,1.44-.63l.91-.46c1.16-.57,2.56-.11,3.13,1.04.58,1.15.12,2.56-1.04,3.13l-.82.42c-.57.31-1.22.58-1.93.85l-1.78.71c-.7.27-1.38.48-2.1.68l-1.93.57c-.73.21-1.45.36-2.21.52-1,.2-1.6.32-2.24.4l-.7.1c-.53.08-1.06.16-1.59.19-.59.04-1.2.12-1.83.2-.77.1-1.31.12-1.87.14l-.65.03c-.28.02-.57.03-.86.03Z"/>
        <path class="cls-2" d="M261.59,302.82c-.95,0-1.83-.58-2.19-1.51-.45-1.21.15-2.56,1.36-3.01.23-.14.42-.23.63-.32,4.04-2.2,8.28-4.51,12.53-6.82l12.68-6.98c3.28-1.8,6.53-3.64,9.8-5.48l2.74-1.55c3.57-2.01,7.12-4.05,10.62-6.07l1.81-1.04c4.11-2.35,8.21-4.75,12.3-7.16,2.51-1.48,5.01-2.97,7.5-4.45l4.71-2.81c3.23-1.91,6.48-3.88,9.67-5.82l2.44-1.48c3.55-2.16,7.11-4.36,10.67-6.56l1.21-.74h0c.15-.09.3-.18.41-.24,1.16-.58,2.55-.12,3.13,1.04.57,1.13.13,2.49-.97,3.09-.04.03-.08.05-.12.08l-1.2.74c-3.57,2.21-7.13,4.41-10.7,6.58l-2.45,1.48c-3.21,1.94-6.47,3.92-9.71,5.84l-4.7,2.8c-2.5,1.49-5,2.99-7.53,4.47-4.11,2.41-8.23,4.82-12.34,7.18l-1.8,1.04c-3.52,2.03-7.08,4.08-10.67,6.1l-2.74,1.54c-3.28,1.85-6.54,3.69-9.84,5.5l-12.7,6.99c-4.25,2.32-8.51,4.63-12.8,6.94-.51.26-.71.37-.95.46-.27.11-.55.16-.83.16Z"/>
        <path class="cls-2" d="M240.52,320.92c-.27,0-.48,0-.71-.03l-1.55-.15c-.53-.05-1.13-.16-1.68-.26-.58-.12-1.12-.23-1.64-.39l-.83-.28c-.97-.31-1.4-.51-1.81-.7-.6-.23-.97-.44-1.24-.6-1.11-.66-1.51-2.11-.86-3.22.66-1.13,2.05-1.51,3.16-.85l.07.04c.09.03.78.37.87.41.2.09.39.2.61.26l1.37.47c.4.12.79.2,1.17.28.44.09.87.17,1.27.21l.98.09c.76.06,1,.05,1.24.05.95,0,1.3-.04,1.66-.07l1.67-.21c.32-.03.68-.14,1.02-.24l1.43-.43c.26-.08.55-.22.82-.35l.72-.35c1.15-.58,2.55-.11,3.13,1.04.58,1.15.12,2.56-1.04,3.13l-.57.28c-.75.35-1.24.56-1.73.71l-.88.27c-1.16.35-1.83.52-2.45.58l-1.47.19c-.75.07-1.22.1-1.73.1-.43.01-.75.02-1.01.02Z"/>
        <path class="cls-2" d="M250.81,318.49l-1.49-1.87-1.04-2.09,4.29-2.31c3.11-1.67,6.2-3.34,9.3-5.06l4.73-2.6c2.67-1.46,5.25-2.88,7.91-4.38l12.55-7.03c4.18-2.35,8.28-4.7,12.37-7.1l12.32-7.17c4.09-2.4,8.14-4.8,12.15-7.21,4-2.4,8.05-4.86,12.06-7.31,3.53-2.17,7.06-4.33,10.55-6.5l.68-.42c1.07-.72,2.51-.45,3.24.62s.44,2.52-.62,3.25c-.33.22-.6.39-.88.55-3.44,2.14-6.99,4.32-10.54,6.49-4.01,2.46-8.08,4.92-12.1,7.33-4.01,2.41-8.08,4.82-12.19,7.23l-12.32,7.17c-4.12,2.41-8.23,4.78-12.45,7.15l-12.55,7.03c-2.67,1.5-5.27,2.93-7.95,4.4l-4.72,2.59c-3.11,1.73-6.23,3.41-9.34,5.09l-3.98,2.14Z"/>
        <path class="cls-2" d="M175.82,277.3c-.26,0-.53-.06-.81-.21-.09-.04-.65-.38-.72-.43-.75-.46-1.31-.85-1.79-1.23-.99-.78-1.59-2.5-.85-3.52.74-1.02,1.76-1.57,2.79-.87.06.04.49.37.55.42.74.57,1.13.84,1.52,1.08,1.08.65,1.82,2.26,1.22,3.36-.45.83-1.13,1.4-1.9,1.4Z"/>
        <path class="cls-2" d="M188.63,293.71c-.46,0-.93-.14-1.32-.42-.02,0-.03-.02-.05-.03-.34-.21-.68-.46-.99-.68-.65-.47-1.08-.83-1.45-1.2l-.75-.81,3.47-3.13.59.64c.18.18.41.38.65.55.44.32.69.5.95.66h0c.18.1.35.22.48.35.95.87,1.02,2.35.14,3.3-.46.5-1.08.76-1.72.76Z"/>
        <path class="cls-2" d="M361.71,244.96c-.8,0-1.58-.33-2-1-.67-1.08-.58-2.37.5-3.06.87-.55,1.27-.83,1.62-1.1.92-.92,2.7-1.12,3.61-.19.9.92,1.19,2.18.27,3.08-.35.34-.74.62-1.16.9-.33.27-.89.66-1.44.99-.42.25-.91.38-1.41.38Z"/>
        <path class="cls-2" d="M348.46,261.77c-.8,0-1.58-.42-2.01-1.16-.66-1.11-.28-2.54.83-3.19l1.18,2.01-.98-2.15c.57-.39.81-.6,1.05-.8.81-1,2.59-1.44,3.59-.64,1,.81,1.46,1.98.65,2.99-.21.26-.46.5-.71.74-.03.03-.48.45-.52.48-.35.29-.68.57-1.02.81l-.88.58c-.37.22-.78.32-1.18.32Z"/>
        <path class="cls-2" d="M367.24,247.89c-.74,0-1.46-.35-1.92-1-.73-1.06-.47-2.51.59-3.25l4.56-3.53,2.95-3.69,1.13-2.55.5-3.78-.43-2.45-1.76-3.75-3.24-3.6-4.63-3.25c-1.08-.69-1.41-2.13-.72-3.22.69-1.1,2.14-1.42,3.22-.73l5.22,3.7,2.87,2.94,2.16,3.26,1.37,3.39.59,3.55-.3,3.67-1.13,3.53-1.93,3.3-2.64,3.03-5.14,4.01c-.4.28-.87.42-1.33.42Z"/>
        <path class="cls-2" d="M266.83,305.79c-.83,0-1.64-.45-2.06-1.24-.61-1.13-.18-2.55.96-3.16,34.58-18.53,68.3-38,100.24-57.87,1.09-.67,2.53-.35,3.21.75.68,1.09.35,2.54-.75,3.22-32.02,19.92-65.83,39.44-100.5,58.02-.35.19-.72.28-1.1.28Z"/>
        <path class="cls-2" d="M240.31,311.69l-8.18-.58-7.82-1.57-7.15-2.47-4.22-2.15c-1.13-.63-1.53-2.06-.9-3.18.63-1.13,2.05-1.52,3.18-.9l5.88,2.81,6.76,1.97,9.92,1.3,2.56.09,10.1-.74,7.13-1.59,6.35-2.35,1.82-.96c1.12-.59,2.55-.16,3.16.99.6,1.14.16,2.55-.99,3.15l-6.57,2.9-7.54,2.03-8.05,1.04-5.45.2Z"/>
        <path class="cls-2" d="M170.57,280.12c-.4,0-.81-.11-1.18-.32l-3.67-2.38-4.5-4.31-2.14-3.18-1.41-3.47-.58-3.55.3-3.65,1.14-3.51,1.89-3.3,2.66-3.06,3.28-2.74,1.93-1.26c1.08-.69,2.51-.39,3.23.7.7,1.08.39,2.53-.7,3.23l-4.5,3.43-2.93,3.7-1.18,2.56-.48,3.76.84,3.74,1.33,2.43,3.25,3.63,2.9,2.24,1.67.97c1.12.66,1.49,2.09.83,3.2-.44.74-1.22,1.15-2.01,1.15Z"/>
        <path class="cls-2" d="M169.58,249.69c-.78,0-1.54-.39-1.98-1.11-.68-1.09-.35-2.54.75-3.22,31.96-19.88,65.78-39.41,100.5-58.02,1.1-.61,2.54-.19,3.16.95.61,1.14.18,2.56-.96,3.16-34.63,18.56-68.36,38.03-100.24,57.87-.39.24-.81.35-1.23.35Z"/>
        <path class="cls-2" d="M322.75,192.31c-.38,0-.76-.09-1.1-.28l-5.88-2.77-6.76-1.98-7.45-1.18-7.63-.22-7.54.69-7.14,1.59-6.31,2.38-1.96.96c-1.15.56-2.56.09-3.12-1.08-.57-1.16-.09-2.56,1.07-3.12l6.6-2.84,7.54-2.02,8.01-1.08,5.49-.15,8.18.58,7.74,1.51,7.16,2.46,4.22,2.14c1.14.61,1.57,2.03.95,3.16-.42.78-1.22,1.23-2.05,1.23Z"/>
        <path class="cls-2" d="M240.41,307.82l-7.45-.58-7.02-1.52-6.36-2.44-1.89-1.01c-1.13-.61-1.56-2.03-.95-3.16.61-1.13,2.04-1.56,3.16-.95l5.33,2.42,6.21,1.7,9,.88,9.12-.74,6.27-1.53,5.39-2.34c1.16-.58,2.55-.14,3.15,1.01.59,1.15.13,2.56-1.01,3.15l-6.07,2.61-6.99,1.71-7.41.74-2.5.05Z"/>
        <path class="cls-2" d="M262.3,302.96c-.83,0-1.64-.45-2.06-1.24-.61-1.14-.17-2.55.96-3.16,8.68-4.62,17.2-9.28,25.69-14,8.48-4.71,16.86-9.47,25.21-14.28,16.54-9.57,33.04-19.44,49.01-29.36,1.1-.69,2.54-.34,3.21.75.68,1.1.35,2.54-.75,3.22-16.01,9.94-32.54,19.84-49.14,29.43-8.37,4.82-16.78,9.59-25.28,14.32-8.51,4.73-17.06,9.4-25.76,14.04-.35.18-.73.28-1.1.28Z"/>
        <path class="cls-2" d="M362.34,245.25c-.75,0-1.49-.36-1.94-1.04-.71-1.07-.44-2.52.64-3.24l3.95-3.12,2.39-3.27.84-2.27.13-2.13-.36-2.15-1.7-3.21-3.17-3.17-2.79-1.84c-1.11-.67-1.46-2.1-.81-3.21.67-1.11,2.1-1.45,3.21-.81l3.3,2.2,2.81,2.58,2.18,2.9,1.41,3.14.58,3.47-.25,3.23-1.22,3.37-1.96,3.04-2.7,2.73-3.25,2.4c-.39.27-.85.39-1.3.39Z"/>
        <path class="cls-2" d="M318.02,195.05c-.38,0-.76-.09-1.11-.28l-5.33-2.47-6.21-1.71-9.04-.88-9.07.73-8.19,2.25-3.52,1.64c-1.15.55-2.56.09-3.12-1.07-.57-1.16-.09-2.56,1.07-3.13l6.06-2.56,6.9-1.73,7.41-.75,2.51-.05,7.48.58,7.02,1.52,6.41,2.51,1.85.99c1.13.61,1.56,2.03.95,3.16-.42.78-1.22,1.23-2.05,1.23Z"/>
        <path class="cls-2" d="M174.47,252.29c-.78,0-1.55-.39-1.98-1.11-.68-1.1-.35-2.54.75-3.22,16.15-10.02,32.68-19.92,49.14-29.43,8.36-4.82,16.77-9.59,25.27-14.32,8.51-4.73,17.06-9.4,25.76-14.03,1.16-.6,2.56-.17,3.16.97.61,1.14.17,2.55-.96,3.16-8.68,4.61-17.21,9.28-25.69,13.99-8.48,4.71-16.86,9.48-25.21,14.28-16.42,9.48-32.91,19.36-49.01,29.36-.39.24-.81.35-1.23.35Z"/>
        <path class="cls-2" d="M175.28,277.43c-.43,0-.85-.12-1.24-.36l-4.73-3.44-2.54-2.83-1.78-3.01-1.03-3.24-.2-1.73.3-3.37,1.2-3.28,1.96-3.04,2.7-2.73,3.23-2.38c1.06-.73,2.51-.47,3.25.59.74,1.06.48,2.51-.58,3.25l-3.99,3.14-2.39,3.27-1,3.34v1.04s.39,2.17.39,2.17l1.71,3.21,1.95,2.17,4.04,2.9c1.09.69,1.42,2.13.74,3.22-.44.71-1.21,1.1-1.98,1.1Z"/>
        <path class="cls-2" d="M240.26,312.16l-8.14-.58-7.82-1.57-4.86-1.52-6.48-3.03c-1.14-.61-1.57-2.03-.95-3.16.61-1.14,2.05-1.55,3.16-.95l5.93,2.78,6.76,1.97,7.37,1.12,7.68.27,9.99-1.15,6.88-1.85,6.01-2.61c1.15-.56,2.56-.11,3.13,1.05.58,1.15.11,2.56-1.04,3.13l-6.53,2.83-7.54,2.03-8.05,1.09-5.49.15Z"/>
        <path class="cls-2" d="M266.83,306.32c-.83,0-1.64-.45-2.05-1.23-.62-1.14-.19-2.55.95-3.16,17.1-9.18,34.28-18.74,51.04-28.41,8.34-4.81,16.63-9.71,24.84-14.61,8.2-4.9,16.3-9.85,24.36-14.84,1.1-.69,2.53-.35,3.22.76.67,1.09.34,2.54-.76,3.21-8.09,5.01-16.21,9.96-24.42,14.88-8.22,4.91-16.54,9.82-24.9,14.64-16.81,9.7-34.02,19.29-51.17,28.49-.35.19-.72.28-1.1.28Z"/>
        <path class="cls-2" d="M249.88,318.49c-.83,0-1.64-.45-2.06-1.24-.61-1.13-.18-2.55.96-3.16,34.01-18.22,67.3-37.43,98.96-57.12,1.1-.69,2.54-.35,3.21.75.68,1.1.35,2.54-.75,3.22-31.75,19.73-65.13,39-99.23,57.26-.35.19-.72.28-1.1.28Z"/>
        <path class="cls-2" d="M191.27,286.16c-.78,0-1.55-.39-1.98-1.11-.68-1.1-.35-2.54.75-3.22,31.81-19.75,65.11-38.97,98.99-57.12,1.09-.6,2.55-.19,3.16.96.61,1.13.18,2.55-.96,3.16-33.79,18.1-67,37.27-98.73,56.97-.39.24-.81.35-1.23.35Z"/>
        <path class="cls-2" d="M170.57,280.64c-.42,0-.84-.12-1.22-.35l-3.62-2.4-4.5-4.27-2.16-3.25-1.39-3.46-.58-3.53c0-.07,0-.53,0-.6,0-1.29,1.04-2.33,2.33-2.33s2.33,1.04,2.33,2.33l.43,2.95.99,2.46,1.67,2.51,3.73,3.51,3.21,2.11c1.09.67,1.44,2.11.76,3.21-.44.72-1.21,1.12-1.99,1.12Z"/>
        <path class="cls-2" d="M188.21,282.62c-.78,0-1.55-.39-1.98-1.11-.68-1.09-.35-2.54.75-3.22,31.57-19.63,64.93-38.89,99.17-57.26,1.1-.6,2.55-.19,3.16.95.62,1.14.19,2.55-.95,3.16-34.15,18.33-67.42,37.54-98.91,57.12-.39.24-.81.35-1.23.35Z"/>
        <path class="cls-2" d="M175.38,253.38c-.78,0-1.54-.39-1.98-1.1-.68-1.1-.35-2.54.75-3.22,15.38-9.59,31.46-19.22,49.14-29.44,8.36-4.82,16.77-9.59,25.28-14.32,8.5-4.72,17.05-9.4,25.7-14.03,1.15-.61,2.55-.18,3.16.96.61,1.14.18,2.55-.96,3.16-8.63,4.62-17.15,9.28-25.63,14-8.49,4.71-16.87,9.47-25.21,14.28-17.64,10.19-33.67,19.79-49.01,29.36-.38.24-.81.36-1.23.36Z"/>
        <path class="cls-2" d="M367.24,248.37c-.73,0-1.46-.35-1.91-.99-.74-1.06-.48-2.51.58-3.25l4.57-3.53,2.94-3.69,1.15-2.56.48-3.37c.06-1.28,1.08-2.14,2.43-2.23,1.29.06,2.29,1.15,2.24,2.44l-.3,2.89-1.14,3.55-1.92,3.29-2.65,3.06-5.11,3.98c-.41.28-.88.42-1.34.42Z"/>
        <path class="cls-2" d="M249.46,318.79c-.76,0-1.5-.32-1.93-.96-.72-1.07-.58-2.43.48-3.15l.28-.19c.9-.9,2.38-.9,3.28.02.9.92.87,2.39-.04,3.3-.11.1-.5.47-.62.55-.43.29-.94.43-1.45.43Z"/>
        <path class="cls-2" d="M231.88,318.68c-.4,0-.8-.14-1.17-.44l-.23-.19c-.06-.05-.39-.37-.45-.42-.91-.91-.93-2.38-.02-3.3.89-.93,2.37-.93,3.3-.02.89.88,1.18,2.54.35,3.46-.52.57-1.15.92-1.79.92Z"/>
        <path class="cls-2" d="M348.64,261.47c-.72,0-1.41-.27-1.83-.84-.76-1.04-.77-2.32.26-3.08.91-.9,2.53-1.03,3.43-.12.91.91,1.04,2.27.13,3.18l-.33.33c-.47.35-1.07.53-1.66.53Z"/>
        <path class="cls-2" d="M188.62,293.64c-.39,0-.81-.12-1.18-.36l-.28-.18c-.12-.08-.53-.46-.64-.57-.91-.91-.93-2.38-.02-3.3.9-.92,2.38-.93,3.3-.02,1.07.71,1.47,2.26.76,3.33-.47.7-1.2,1.11-1.96,1.11Z"/>
        <path class="cls-2" d="M169.1,271.06c-.83,0-1.64-.45-2.06-1.24l-1.6-3.78-.41-3.52.59-3.47,1.5-3.25,2.26-2.93,2.94-2.6,1.84-1.21c1.08-.69,2.51-.39,3.23.7.7,1.08.39,2.53-.7,3.23l-3.98,3.15-2.29,3.32-.74,3.23.26,2.22,1.22,2.72c.61,1.14.17,2.55-.96,3.16-.35.19-.73.28-1.1.28Z"/>
        <path class="cls-2" d="M186.86,283.6c-.6,0-1.19-.23-1.65-.69-.9-.92-.87-2.39.04-3.3l1.65-1.25c1.07-.73,2.52-.46,3.25.61.72,1.06.45,2.52-.62,3.24l-1.04.71c-.45.45-1.04.68-1.64.68Z"/>
        <path class="cls-2" d="M367.77,239.22c-.39,0-.78-.1-1.13-.3-1.13-.62-1.54-2.05-.9-3.18l1.03-2.24.39-2.27-.27-2.07-1.59-3.25-3.05-3.16-2.8-1.85c-1.11-.67-1.46-2.1-.81-3.21.67-1.11,2.1-1.46,3.21-.81l3.36,2.26,2.78,2.65,2.11,3,1.31,3.22.4,3.43-.59,3.43-1.41,3.13c-.43.76-1.22,1.2-2.04,1.2Z"/>
        <path class="cls-2" d="M350.21,252.18c-.55,0-1.1-.19-1.55-.58l-1.68-1.27c-1.08-.71-1.38-2.15-.67-3.23.71-1.08,2.18-1.37,3.24-.67l2.2,1.66c.97.85,1.06,2.33.21,3.3-.46.53-1.1.79-1.75.79Z"/>
        <path class="cls-2" d="M219.55,302.44c-.39,0-.8-.1-1.17-.32l-43.51-25.1c-1.12-.65-1.5-2.07-.85-3.19.63-1.12,2.07-1.51,3.19-.85l43.51,25.1c1.12.65,1.5,2.07.85,3.19-.43.75-1.22,1.17-2.02,1.17Z"/>
        <path class="cls-2" d="M232.2,318.77c-.4,0-.8-.1-1.17-.32l-43.46-25.11c-1.12-.65-1.5-2.08-.85-3.19.65-1.13,2.08-1.5,3.19-.85l43.46,25.11c1.12.65,1.5,2.08.85,3.19-.44.75-1.22,1.17-2.02,1.17Z"/>
        <path class="cls-2" d="M159.42,265.11c-1.29,0-2.33-1.04-2.33-2.33s1.04-2.6,2.33-2.6,2.33.78,2.33,2.08v.52c0,1.29-1.04,2.33-2.33,2.33Z"/>
        <path class="cls-2" d="M185.72,291.26c-.66,0-1.31-.27-1.77-.81l-3.25-3.78c-.85-.98-.73-2.45.24-3.3.99-.83,2.46-.74,3.3.25l3.25,3.78c.85.98.73,2.45-.24,3.3-.44.38-.99.56-1.53.56Z"/>
        <path class="cls-2" d="M377.39,233.17c-1.29,0-2.33-.81-2.33-2.1v-.47c0-1.29,1.04-2.33,2.33-2.33s2.33,1.04,2.33,2.33-1.04,2.57-2.33,2.57Z"/>
        <path class="cls-2" d="M351.05,259.54c-.55,0-1.1-.19-1.55-.58-.97-.85-1.06-2.33-.21-3.3l2.46-2.78c.85-.97,2.33-1.06,3.3-.21.97.85,1.06,2.33.21,3.3l-2.46,2.78c-.46.52-1.1.79-1.75.79Z"/>
        <path class="cls-2" d="M214.07,305.22c-.39,0-.8-.1-1.17-.32l-43.51-25.1c-1.12-.65-1.5-2.07-.85-3.19.63-1.12,2.06-1.5,3.19-.85l43.51,25.1c1.12.65,1.5,2.07.85,3.19-.43.75-1.22,1.17-2.02,1.17Z"/>
        <path class="cls-2" d="M366.25,217.42c-.39,0-.8-.1-1.17-.32l-43.51-25.1c-1.12-.65-1.5-2.07-.85-3.19.63-1.12,2.06-1.51,3.19-.85l43.51,25.1c1.12.65,1.5,2.07.85,3.19-.43.75-1.22,1.17-2.02,1.17Z"/>
        <path class="cls-2" d="M218.78,302.54c-.39,0-.8-.1-1.17-.32l-43.51-25.11c-1.12-.65-1.5-2.07-.85-3.19.64-1.12,2.07-1.51,3.19-.85l43.51,25.11c1.12.65,1.5,2.07.85,3.19-.43.75-1.22,1.17-2.02,1.17Z"/>
        <path class="cls-2" d="M361.53,220.15c-.39,0-.8-.1-1.17-.32l-43.51-25.1c-1.12-.65-1.5-2.07-.85-3.19.63-1.12,2.06-1.51,3.19-.85l43.51,25.1c1.12.65,1.5,2.07.85,3.19-.43.75-1.22,1.17-2.02,1.17Z"/>
        <path class="cls-2" d="M214.07,305.48c-1.29,0-2.33-.78-2.33-2.08v-.52c0-1.29,1.04-2.33,2.33-2.33s2.33,1.04,2.33,2.33-1.04,2.6-2.33,2.6Z"/>
        <path class="cls-2" d="M170.57,280.63c-1.29,0-2.33-1.04-2.33-2.33s1.04-2.6,2.33-2.6,2.33.78,2.33,2.08v.52c0,1.29-1.04,2.33-2.33,2.33Z"/>
        <path class="cls-2" d="M214.07,305.74c-.39,0-.8-.1-1.17-.32l-43.51-25.1c-1.12-.65-1.5-2.07-.85-3.19.63-1.12,2.06-1.51,3.19-.85l43.51,25.1c1.12.65,1.5,2.07.85,3.19-.43.75-1.22,1.17-2.02,1.17Z"/>
        <path class="cls-2" d="M231.68,318.3c-.39,0-.8-.1-1.17-.32l-43.51-25.1c-1.12-.65-1.5-2.07-.85-3.19.64-1.12,2.06-1.51,3.19-.85l43.51,25.1c1.12.65,1.5,2.07.85,3.19-.43.75-1.22,1.17-2.02,1.17Z"/>
        <path class="cls-2" d="M345.3,254.36c-.39,0-.8-.1-1.17-.32l-43.51-25.1c-1.12-.65-1.5-2.07-.85-3.19.64-1.12,2.06-1.5,3.19-.85l43.51,25.1c1.12.65,1.5,2.07.85,3.19-.43.75-1.22,1.17-2.02,1.17Z"/>
        <path class="cls-2" d="M185.78,291.29c-.35,0-.69-.07-1.02-.24l-.09-.05c-1.16-.58-1.62-1.98-1.04-3.13.58-1.15,1.99-1.62,3.13-1.04,1.15.58,1.67,2,1.09,3.16-.41.82-1.22,1.31-2.07,1.31Z"/>
        <path class="cls-2" d="M351,259.65c-.37,0-.73-.09-1.08-.27-1.15-.6-1.59-2.01-.99-3.15.58-1.14,2.03-1.65,3.17-1.04,1.15.6,1.62,1.96,1.02,3.1l-.05.09c-.42.8-1.23,1.26-2.07,1.26Z"/>
        <path class="cls-2" d="M348.28,250.72c-.39,0-.8-.1-1.17-.32l-43.51-25.1c-1.12-.65-1.5-2.07-.85-3.19.64-1.12,2.06-1.51,3.19-.85l43.51,25.1c1.12.65,1.5,2.07.85,3.19-.43.75-1.22,1.17-2.02,1.17Z"/>
        <path class="cls-2" d="M360.63,221.24c-.39,0-.8-.1-1.17-.32l-43.51-25.11c-1.12-.65-1.5-2.07-.85-3.19.63-1.13,2.07-1.5,3.19-.85l43.51,25.11c1.12.65,1.5,2.07.85,3.19-.43.75-1.22,1.17-2.02,1.17Z"/>
        <path class="cls-2" d="M348.98,261.3c-.53,0-1.05-.17-1.49-.53-.99-.82-1.13-2.29-.31-3.29l2.93-3.54c.81-1,2.29-1.14,3.29-.31.99.82,1.13,2.29.31,3.29l-2.93,3.54c-.46.56-1.13.85-1.8.85Z"/>
        <path class="cls-2" d="M345.92,254.78c-.46,0-.92-.13-1.32-.41l-.62-.42c-1.06-.73-1.33-2.19-.6-3.25.74-1.06,2.2-1.32,3.25-.6l.62.42c1.06.73,1.33,2.19.6,3.25-.45.66-1.18,1.01-1.92,1.01Z"/>
        <path class="cls-2" d="M240.96,320.55c-3.57,0-7.13-.84-10.36-2.52-1.15-.6-1.59-2.01-.99-3.15.6-1.14,2-1.59,3.15-.99,5,2.61,11.03,2.67,16.1.16,1.18-.57,2.56-.09,3.13,1.06.57,1.16.09,2.56-1.06,3.13-3.14,1.54-6.55,2.31-9.96,2.31Z"/>
        <path class="cls-2" d="M301.79,229.25c-.36,0-.73-.09-1.08-.27-2.97-1.55-6.54-1.59-9.56-.12-1.15.55-2.55.08-3.12-1.08-.56-1.16-.07-2.56,1.08-3.12,4.32-2.11,9.48-2.05,13.75.17,1.14.59,1.59,2,.99,3.15-.41.8-1.23,1.26-2.07,1.26Z"/>
        <path class="cls-2" d="M173.02,275.35c-.5,0-1.01-.16-1.44-.49-1.78-1.39-3.32-3.09-4.45-4.9-.68-1.09-.35-2.54.74-3.22,1.09-.67,2.53-.36,3.22.74.85,1.36,2.01,2.63,3.37,3.69,1.02.8,1.2,2.26.4,3.28-.46.59-1.15.9-1.84.9Z"/>
        <path class="cls-2" d="M364.03,243.45c-.68,0-1.36-.3-1.82-.87-.81-1.01-.66-2.47.35-3.29,1.29-1.04,2.37-2.26,3.2-3.6.67-1.1,2.11-1.43,3.21-.77,1.09.67,1.44,2.11.76,3.21-1.1,1.8-2.53,3.42-4.25,4.8-.43.35-.95.51-1.46.51Z"/>
        <path class="cls-2" d="M317.13,196.13c-.36,0-.73-.09-1.07-.26-12.38-6.4-27.22-6.55-39.65-.4-1.18.58-2.56.09-3.13-1.06-.57-1.15-.09-2.56,1.06-3.13,13.79-6.79,30.19-6.62,43.86.44,1.15.59,1.6,2,1.01,3.15-.42.8-1.23,1.27-2.08,1.27Z"/>
        <path class="cls-2" d="M304.76,225.62c-.36,0-.73-.09-1.08-.26-4.78-2.47-10.54-2.53-15.41-.16-1.15.56-2.55.09-3.12-1.08-.56-1.16-.08-2.56,1.08-3.12,6.17-3.01,13.5-2.93,19.6.21,1.14.59,1.59,2,.99,3.15-.41.8-1.22,1.27-2.07,1.27Z"/>
        <path class="cls-2" d="M218.8,302.53c-.67,0-1.34-.29-1.81-.85-.81-1-.67-2.47.33-3.29.98-.81,2.33-.94,3.42-.3,1.11.65,1.49,2.08.83,3.19-.45.77-1.48,1.12-2.1,1.15-.22.07-.44.09-.67.09Z"/>
        <path class="cls-2" d="M175.27,277.43c-.69,0-1.37-.3-1.83-.88-.8-1.01-.63-2.48.38-3.28,1.04-.82,2.38-.9,3.45-.25,1.09.68,1.42,2.12.74,3.22-.46.74-1.4,1.04-2.07,1.1-.22.07-.44.09-.67.09Z"/>
        <path class="cls-2" d="M188.16,293.19c-.42,0-.84-.11-1.22-.35-1.12-.69-2.05-1.43-2.85-2.28-.88-.94-.83-2.42.12-3.3.95-.88,2.42-.84,3.3.11.5.54,1.12,1.03,1.87,1.49,1.1.67,1.45,2.11.77,3.21-.44.72-1.21,1.12-1.99,1.12Z"/>
        <path class="cls-2" d="M348.98,261.29c-.78,0-1.55-.39-1.99-1.11-.67-1.09-.34-2.54.76-3.21.6-.37,1.13-.8,1.55-1.25.88-.95,2.36-.99,3.3-.13.95.88,1,2.35.13,3.3-.7.75-1.57,1.46-2.51,2.05-.39.24-.81.35-1.23.35Z"/>
      </g>
    </g>
  </g>
  <rect class="cls-1" width="500" height="500"/>
</svg>