<?xml version="1.0" encoding="UTF-8"?>
<svg id="Layer_1" data-name="Layer 1" xmlns="http://www.w3.org/2000/svg" viewBox="0 0 500 500">
  <defs>
    <style>
      .cls-1, .cls-2 {
        fill: none;
      }

      .cls-3 {
        fill: #7cc245;
      }

      .cls-2 {
        stroke: #7cc245;
        stroke-linecap: round;
        stroke-miterlimit: 10;
        stroke-width: 20.06px;
      }
    </style>
  </defs>
  <g>
    <g>
      <line class="cls-2" x1="147.42" y1="250.17" x2="352.58" y2="250.17"/>
      <line class="cls-2" x1="324.24" y1="214.51" x2="324.24" y2="285.36"/>
      <line class="cls-2" x1="310.39" y1="199.53" x2="310.39" y2="300.7"/>
      <line class="cls-2" x1="176.19" y1="285.49" x2="176.19" y2="214.64"/>
      <line class="cls-2" x1="190.41" y1="300.47" x2="190.41" y2="199.3"/>
    </g>
    <path class="cls-3" d="M250,85.5c43.94,0,85.25,17.11,116.32,48.18,31.07,31.07,48.18,72.38,48.18,116.32s-17.11,85.25-48.18,116.32c-31.07,31.07-72.38,48.18-116.32,48.18s-85.25-17.11-116.32-48.18c-31.07-31.07-48.18-72.38-48.18-116.32s17.11-85.25,48.18-116.32c31.07-31.07,72.38-48.18,116.32-48.18M250,65.43c-101.93,0-184.57,82.63-184.57,184.57s82.63,184.57,184.57,184.57,184.57-82.63,184.57-184.57-82.63-184.57-184.57-184.57h0Z"/>
  </g>
  <rect class="cls-1" width="500" height="500"/>
</svg>