<?xml version="1.0" encoding="UTF-8"?>
<svg id="Layer_1" data-name="Layer 1" xmlns="http://www.w3.org/2000/svg" viewBox="0 0 500 500">
  <defs>
    <style>
      .cls-1 {
        fill: none;
      }

      .cls-2 {
        fill: #8fc859;
      }
    </style>
  </defs>
  <g>
    <rect class="cls-1" x="66.5" y="41.25" width="366.99" height="366.99"/>
    <path class="cls-2" d="M332.01,332.48v-44.14c25.42-28.09,20.5-56.56,13.12-99.15l-.74-4.28c.45-1.85.69-3.76.69-5.71v-28.46c0-6.48-2.54-12.59-7.15-17.2-4.61-4.61-10.72-7.15-17.2-7.15-4.8,0-9.29,1.4-13.06,3.81-3.83-8.43-12.34-14.32-22.19-14.32-4.54,0-8.8,1.25-12.44,3.42-3.48-9.22-12.39-15.79-22.81-15.79-8.94,0-16.76,4.84-21,12.03-4.01-2.89-8.93-4.61-14.24-4.61-13.44,0-24.36,10.93-24.36,24.36v29.79c-17.63,3.4-31.64,16.89-35.41,35.14l-1.89,9.11c-5.93,28.73,11.66,42.49,25.79,53.56,10.86,8.5,17.52,14.16,17.62,22.89v46.7c0,3.71,3.01,6.73,6.74,6.73h121.81c3.72,0,6.74-3.01,6.74-6.73M320.71,139.86c2.89,0,5.61,1.14,7.68,3.2,2.07,2.07,3.2,4.79,3.2,7.68v28.46c0,2.89-1.14,5.61-3.2,7.68-2.07,2.07-4.79,3.2-7.69,3.2s-5.61-1.14-7.68-3.2c-2.07-2.07-3.2-4.79-3.2-7.68v-.02h0v-28.43h0c0-6.01,4.89-10.89,10.89-10.89M285.46,129.35c6,0,10.89,4.88,10.89,10.89v38.96c0,6-4.89,10.89-10.89,10.89s-10.89-4.89-10.89-10.89v-38.96c0-6.01,4.89-10.89,10.89-10.89M239.33,127.87c0-6.01,4.89-10.89,10.89-10.89s10.89,4.89,10.89,10.89v49.25c-4.45-7.5-12.52-12.58-21.78-12.86v-36.39ZM214.97,124.41c6,0,10.89,4.89,10.89,10.89v28.95h-21.78v-28.95c0-6,4.89-10.89,10.89-10.89M187.4,252.28c-13.5-10.56-25.15-19.69-20.9-40.23l1.88-9.11c3.07-14.86,15.81-25.23,30.98-25.23h39.18c7.03,0,12.75,5.71,12.75,12.75,0,3.42-1.36,6.53-3.57,8.83-.1.09-.19.19-.28.28-2.29,2.25-5.44,3.64-8.89,3.64h-42.22c-3.72,0-6.74,3.01-6.74,6.74s3.01,6.74,6.74,6.74h11.02c32.11,0,35.8,20.52,36.74,39.75l.02.44c.18,3.61,3.15,6.41,6.72,6.41.12,0,.23,0,.33,0,3.71-.18,6.58-3.34,6.4-7.05l-.03-.44c-.36-7.53-.98-20.12-7.41-31.33-1.79-3.12-3.9-5.87-6.3-8.31,4.43-.9,8.45-2.94,11.76-5.78,6.69-1.51,12.28-5.75,15.63-11.43,4.01,2.9,8.93,4.62,14.25,4.62,6.93,0,13.19-2.91,17.63-7.57.13.14.27.28.41.42,4.61,4.61,10.72,7.15,17.2,7.15,4.52,0,8.84-1.24,12.62-3.54,6.11,35.9,8.21,57.45-10.97,78.93-1.2,0-2.76-.02-4.69-.02-5.08,0-70.64,0-108.28.04-2.83-11.71-12.53-19.31-21.97-26.69M318.54,325.74h-108.34v-33.31c67.39-.07,96.82-.06,108.34-.03v33.34ZM232.32,309.09c0,3.82-3.12,6.94-6.94,6.94s-6.94-3.11-6.94-6.94,3.12-6.94,6.94-6.94,6.94,3.12,6.94,6.94M243.27,78.31v-30.32c0-3.72,3.01-6.74,6.73-6.74s6.74,3.01,6.74,6.74v30.32c0,3.72-3.01,6.74-6.74,6.74s-6.73-3.01-6.73-6.74M143.16,78.41c-1.86-3.22-.75-7.34,2.46-9.2,3.22-1.86,7.35-.75,9.2,2.47l15.16,26.26c1.86,3.22.76,7.34-2.46,9.2-1.06.61-2.23.9-3.36.9-2.33,0-4.59-1.2-5.84-3.36l-15.16-26.26ZM86.05,154.04c1.87-3.22,5.98-4.33,9.2-2.47l26.26,15.16c3.22,1.87,4.32,5.98,2.46,9.2-1.25,2.16-3.51,3.36-5.84,3.36-1.14,0-2.3-.28-3.36-.9l-26.26-15.16c-3.22-1.86-4.33-5.97-2.47-9.2M103.56,256.73h-30.32c-3.72,0-6.74-3.01-6.74-6.73s3.01-6.74,6.74-6.74h30.32c3.72,0,6.74,3.01,6.74,6.74s-3.01,6.73-6.74,6.73M330.02,97.94l15.16-26.26c1.86-3.22,5.97-4.33,9.2-2.47,3.22,1.87,4.33,5.98,2.47,9.2l-15.16,26.26c-1.25,2.16-3.51,3.36-5.84,3.36-1.15,0-2.3-.29-3.36-.9-3.22-1.86-4.32-5.97-2.46-9.2M376.02,175.94c-1.87-3.22-.76-7.34,2.46-9.2l26.26-15.16c3.22-1.86,7.34-.75,9.2,2.47,1.86,3.22.75,7.34-2.47,9.2l-26.26,15.16c-1.06.62-2.22.9-3.36.9-2.33,0-4.58-1.2-5.83-3.36M433.5,250c0,3.71-3.01,6.73-6.74,6.73h-30.32c-3.72,0-6.74-3.01-6.74-6.73s3.01-6.74,6.74-6.74h30.32c3.72,0,6.74,3.01,6.74,6.74M142.37,315.72c-1.71-2.02-4.2-3.17-6.84-3.17s-5.14,1.15-6.85,3.17l-30.95,36.45c-2.26,2.65-2.77,6.42-1.31,9.58,1.46,3.17,4.66,5.21,8.15,5.21h7.68v80.55c0,6.19,5.05,11.24,11.24,11.24h24.08c6.19,0,11.23-5.05,11.23-11.24v-80.55h7.68c3.49,0,6.69-2.04,8.16-5.2,1.46-3.17.95-6.93-1.31-9.59l-30.96-36.45ZM152.06,353.51c-3.71,0-6.73,3.01-6.73,6.73v85.05h-19.61v-85.05c0-3.71-3.01-6.73-6.74-6.73h-4.72l21.26-25.04,21.26,25.04h-4.73ZM371.32,315.72c-1.72-2.02-4.21-3.17-6.85-3.17s-5.14,1.15-6.84,3.16l-30.96,36.46c-2.26,2.65-2.77,6.42-1.31,9.59,1.46,3.16,4.66,5.2,8.16,5.2h7.68v80.55c0,6.19,5.04,11.24,11.23,11.24h24.08c6.19,0,11.23-5.05,11.23-11.24v-80.55h7.69c3.49,0,6.69-2.04,8.15-5.2,1.46-3.16.95-6.93-1.31-9.59l-30.95-36.45ZM381.01,353.51c-3.72,0-6.74,3.01-6.74,6.73v85.05h-19.61v-85.05c0-3.71-3.01-6.73-6.73-6.73h-4.73l21.26-25.04,21.26,25.04h-4.72ZM256.85,349.39c-1.72-2.02-4.21-3.17-6.85-3.17s-5.14,1.15-6.84,3.17l-30.95,36.45c-2.26,2.66-2.78,6.43-1.31,9.59,1.46,3.16,4.67,5.21,8.16,5.21h7.68v46.87c0,6.19,5.04,11.24,11.23,11.24h24.08c6.2,0,11.24-5.05,11.24-11.24v-46.87h7.68c3.49,0,6.69-2.05,8.16-5.21,1.46-3.16.95-6.93-1.31-9.59l-30.95-36.45ZM266.54,387.17c-3.71,0-6.74,3.01-6.74,6.74v51.37h-19.6v-51.37c0-3.72-3.02-6.74-6.74-6.74h-4.73l21.26-25.04,21.27,25.04h-4.73Z"/>
  </g>
  <rect class="cls-1" width="500" height="500"/>
</svg>