<svg width="37" height="26" viewBox="0 0 37 26" fill="none" xmlns="http://www.w3.org/2000/svg">
<path d="M35.8632 17.4787C33.408 15.847 30.9572 14.211 28.5306 12.5398C28.2568 12.3493 27.9765 12.1587 27.7071 11.9617C27.6282 11.9047 27.5494 11.8434 27.4705 11.793C27.2581 11.6025 26.9712 11.4733 26.6076 11.4623C26.2703 11.4514 25.8564 11.62 25.6264 11.8653C25.3022 12.2135 25.1095 12.7392 25.2737 13.21C25.4971 13.8671 26.0928 14.1912 26.6251 14.568C27.2822 15.0279 27.948 15.4813 28.616 15.9303C29.4 16.4625 30.1907 16.9903 30.977 17.5159C22.2292 18.4971 12.295 16.3508 6.58047 9.10566C4.72539 6.75124 3.46385 3.90184 2.71265 0.982468C2.27024 -0.739001 -0.393038 -0.00966342 0.0493983 1.71618C1.50146 7.406 4.78673 12.3625 9.66401 15.6722C14.0991 18.6771 19.4648 20.1007 24.7632 20.4271C26.5789 20.5388 28.3968 20.5059 30.208 20.3548C28.3244 21.3579 26.3402 22.1551 24.2922 22.788C22.5992 23.3093 23.3219 25.9791 25.0259 25.4513C27.9016 24.5665 30.7157 23.3772 33.2674 21.7784C34.2661 21.1563 35.2868 20.473 36.1431 19.6539C36.822 19.01 36.5811 17.9609 35.8628 17.4834L35.8632 17.4787ZM27.9307 12.4719C27.9197 12.5048 27.9131 12.5398 27.9022 12.5727C27.8912 12.5157 27.8803 12.4544 27.8584 12.3997C27.9088 12.4785 27.9416 12.5179 27.9263 12.4719L27.9307 12.4719ZM27.578 11.8938L27.5671 11.8828C27.5671 11.8828 27.5737 11.8828 27.578 11.8894V11.8938Z" fill="#008E90"/>
</svg>
