<svg width="33" height="41" viewBox="0 0 33 41" fill="none" xmlns="http://www.w3.org/2000/svg">
<path d="M21.3248 16.0234C21.5392 15.8972 21.7926 15.8667 22.0289 15.9345L24.277 16.5556C24.7643 16.6894 25.0502 17.1937 24.9147 17.6826C24.7825 18.1676 24.281 18.4564 23.7887 18.3193L23.6715 18.287L26.4342 23.2568C26.9206 24.1327 26.9086 25.1731 26.401 26.0351C25.8776 26.9251 24.9411 27.455 23.8951 27.455H20.2594C19.754 27.455 19.3436 27.0453 19.3434 26.54C19.3434 26.0344 19.7539 25.624 20.2594 25.624H23.8951C24.2867 25.624 24.6321 25.4283 24.8219 25.1064L24.8815 24.9911C25.0002 24.7172 24.9837 24.4164 24.8336 24.1464L22.1022 19.2343L22.068 19.3681C21.9413 19.8628 21.4308 20.1499 20.9528 20.0253C20.4625 19.8972 20.1674 19.3978 20.2936 18.912L20.8961 16.5878L20.9235 16.4999C20.9974 16.2999 21.1386 16.1294 21.3248 16.0234Z" fill="#008E90" stroke="#008E90" stroke-width="0.1"/>
<path d="M16.3513 8.27551C17.4216 8.27565 18.3699 8.82676 18.8845 9.74817L20.6296 12.8702C20.8767 13.3133 20.7194 13.87 20.278 14.1173V14.1183C19.8386 14.3634 19.28 14.2088 19.0309 13.7657L17.2858 10.6437C17.101 10.3126 16.7283 10.1431 16.3503 10.1427C15.9725 10.1424 15.6004 10.3112 15.4147 10.6437L12.7849 15.3478L12.9216 15.3107C13.4069 15.1772 13.912 15.4631 14.0475 15.9484L14.0681 16.0402C14.1448 16.4974 13.8647 16.949 13.4079 17.0743L11.1589 17.6954C10.9238 17.7632 10.6696 17.7289 10.4577 17.6066C10.2717 17.4991 10.1303 17.33 10.0563 17.13L10.029 17.0421L9.42938 14.7208C9.3011 14.2333 9.59658 13.731 10.0856 13.6046L10.1774 13.5861C10.6344 13.5161 11.0824 13.8027 11.2009 14.2628L11.2302 14.3751L13.8171 9.74817C14.3317 8.8266 15.2807 8.27551 16.3513 8.27551Z" fill="#008E90" stroke="#008E90" stroke-width="0.1"/>
<path d="M8.21368 19.7841C8.48115 19.4029 8.9925 19.2811 9.41095 19.5126L9.49005 19.5624C9.86881 19.8291 9.99434 20.3458 9.76251 20.7597L7.86993 24.1454C7.69873 24.4536 7.70188 24.8015 7.8797 25.1064C8.07124 25.43 8.41656 25.624 8.80646 25.624H14.1893L14.0467 25.4765C13.6951 25.1139 13.7039 24.5333 14.0682 24.1816C14.429 23.8336 15.0096 23.8395 15.3631 24.204L17.0106 25.9023C17.3548 26.256 17.3547 26.8205 17.0106 27.1757L15.3631 28.8759C15.0114 29.2401 14.4308 29.249 14.0682 28.8974C13.704 28.5457 13.6951 27.9651 14.0467 27.6025L14.1893 27.454H8.80646C7.76047 27.454 6.82228 26.9212 6.3006 26.0312C5.7933 25.1659 5.78146 24.1259 6.2713 23.2499L8.16388 19.8642L8.21368 19.7841Z" fill="#008E90" stroke="#008E90" stroke-width="0.1"/>
<path d="M15.7557 0.338684C16.072 0.0207053 16.6276 0.0211661 16.9451 0.338684L19.034 2.42755C22.2897 5.68174 27.093 7.01126 31.5574 5.89532C31.8114 5.83142 32.0744 5.88843 32.2791 6.04767L32.2801 6.04865C32.4829 6.20957 32.6024 6.45356 32.6024 6.71271V17.2225C32.6023 27.4155 26.1916 36.6676 16.6473 40.2459L16.6463 40.2469C16.5515 40.2818 16.4525 40.2996 16.3514 40.2996C16.2501 40.2996 16.1504 40.2819 16.0555 40.2469V40.2459C6.5125 36.6662 0.100424 27.4157 0.100403 17.2225V6.71271C0.100403 6.45332 0.220015 6.21139 0.422668 6.0506L0.423645 6.04865C0.630134 5.89089 0.894078 5.83774 1.14337 5.8963H1.14435C5.61329 7.01537 10.4125 5.68478 13.6668 2.42755L15.7557 0.338684ZM14.8572 3.61798C11.4394 7.03874 6.50813 8.5721 1.78204 7.74884L1.78302 17.2234C1.78302 26.6123 7.62563 35.1473 16.3524 38.5604C25.0793 35.1474 30.9217 26.6124 30.9217 17.2234V7.74884C26.187 8.57357 21.2658 7.03724 17.8465 3.61798L16.3504 2.12189L14.8572 3.61798Z" fill="#008E90" stroke="#008E90" stroke-width="0.2"/>
</svg>
