<?xml version="1.0" encoding="UTF-8"?>
<svg id="Layer_1" data-name="Layer 1" xmlns="http://www.w3.org/2000/svg" viewBox="0 0 500 500">
  <defs>
    <style>
      .cls-1 {
        fill: none;
      }

      .cls-2 {
        fill: #8fc859;
      }
    </style>
  </defs>
  <g>
    <rect class="cls-1" x="66.5" y="66.5" width="366.99" height="366.99"/>
    <g>
      <path class="cls-2" d="M228.5,431.41h43.01c16.67,0,30.23-13.56,30.23-30.23v-14.75l1.35-.48c12.06-4.28,20.16-15.73,20.16-28.5v-21.5c0-19.83,7.93-39.79,22.32-56.22,20.27-23.13,31.44-52.8,31.44-83.56,0-38.65-17.25-74.83-47.33-99.27-22.84-18.56-51.05-28.37-80.15-28.37-8.9,0-17.88.92-26.82,2.79-47.66,9.96-86.55,49.02-96.76,97.19-8.62,40.64,2,81.43,29.12,111.92,14,15.73,21.7,35.45,21.7,55.52v21.5c0,12.77,8.1,24.22,20.16,28.5l1.35.48v14.75c0,16.67,13.56,30.23,30.23,30.23ZM284.28,401.17c0,7.04-5.73,12.77-12.77,12.77h-43.01c-7.04,0-12.77-5.73-12.77-12.77v-13.49h68.56v13.49ZM193.64,325.42c-2.28-20.8-11.11-40.37-25.54-56.59-23.4-26.3-32.54-61.55-25.08-96.7,8.8-41.51,42.26-75.16,83.25-83.73,32.99-6.89,66.66,1.14,92.38,22.05,25.98,21.12,40.88,52.36,40.88,85.73,0,26.52-9.63,52.11-27.11,72.05-14.69,16.76-23.7,36.54-26.05,57.2l-.2,1.79h-15.19v-98.71c0-.94-.15-2.31-.84-3.78-.03-.07-.06-.14-.09-.22l-32.24-64.49c-1.49-2.98-4.48-4.83-7.81-4.83s-6.32,1.85-7.81,4.83l-32.25,64.51c-.59,1.17-.92,2.6-.92,3.93v98.76h-15.17l-.2-1.8ZM270.87,243.6l2.66-.88v84.5h-47.05v-84.5l2.66.88c13.53,4.46,28.21,4.47,41.74,0ZM229.24,224.95l20.76-41.51,20.76,41.51-2.01.83c-6.04,2.49-12.39,3.73-18.74,3.73s-12.7-1.24-18.74-3.73l-2.01-.83ZM194.22,357.45v-12.77h111.56v12.77c0,7.04-5.73,12.77-12.77,12.77h-86.01c-7.04,0-12.77-5.73-12.77-12.77Z"/>
      <path class="cls-2" d="M98.76,198.2h-21.5c-4.81,0-8.73,3.92-8.73,8.73s3.92,8.73,8.73,8.73h21.5c4.81,0,8.73-3.92,8.73-8.73s-3.92-8.73-8.73-8.73Z"/>
      <path class="cls-2" d="M86.58,128.64c-1.7-1.7-3.94-2.55-6.17-2.55s-4.47.85-6.17,2.55c-1.65,1.65-2.56,3.84-2.56,6.17s.91,4.52,2.56,6.17l15.21,15.21c3.4,3.4,8.94,3.4,12.34,0,1.65-1.65,2.56-3.84,2.56-6.17s-.91-4.52-2.56-6.17l-15.21-15.21Z"/>
      <path class="cls-2" d="M101.78,270.01c3.4-3.4,3.4-8.94,0-12.34-1.65-1.65-3.84-2.56-6.17-2.56s-4.52.91-6.17,2.56l-15.21,15.21c-3.4,3.4-3.4,8.94,0,12.34s8.94,3.4,12.34,0l15.21-15.21Z"/>
      <path class="cls-2" d="M422.74,198.2h-21.5c-4.81,0-8.73,3.92-8.73,8.73s3.92,8.73,8.73,8.73h21.5c4.81,0,8.73-3.92,8.73-8.73s-3.92-8.73-8.73-8.73Z"/>
      <path class="cls-2" d="M395.66,150.02c0,2.33.91,4.52,2.56,6.17,1.65,1.65,3.84,2.56,6.17,2.56s4.52-.91,6.17-2.56l15.21-15.21c1.65-1.65,2.56-3.84,2.56-6.17s-.91-4.52-2.56-6.17c-1.7-1.7-3.94-2.55-6.17-2.55s-4.47.85-6.17,2.55l-15.21,15.21c-1.65,1.65-2.56,3.84-2.56,6.17Z"/>
      <path class="cls-2" d="M398.22,270.01l15.21,15.21c1.65,1.65,3.84,2.56,6.17,2.56s4.52-.91,6.17-2.56c1.65-1.65,2.56-3.84,2.56-6.17s-.91-4.52-2.56-6.17l-15.21-15.21c-1.65-1.65-3.84-2.56-6.17-2.56s-4.52.91-6.17,2.56c-1.65,1.65-2.56,3.84-2.56,6.17s.91,4.52,2.56,6.17Z"/>
    </g>
  </g>
  <rect class="cls-1" width="500" height="500"/>
</svg>