<?xml version="1.0" encoding="UTF-8"?>
<svg id="Layer_1" data-name="Layer 1" xmlns="http://www.w3.org/2000/svg" viewBox="0 0 500 500">
  <defs>
    <style>
      .cls-1 {
        fill: none;
      }

      .cls-2 {
        fill: #7cc145;
      }
    </style>
  </defs>
  <g>
    <rect class="cls-1" x="66.5" y="66.5" width="366.99" height="366.99"/>
    <g>
      <g>
        <path class="cls-2" d="M414.08,355.51v-74.92c0-3.62-2.93-6.56-6.55-6.56h-78.7c-3.62,0-6.56,2.93-6.56,6.55h0v72.14h-26.23v-72.14c0-3.62-2.93-6.56-6.55-6.56h-78.7c-3.62,0-6.56,2.93-6.56,6.55h0v72.14h-26.23v-72.14c0-3.62-2.93-6.56-6.55-6.56h-78.7c-3.62,0-6.56,2.93-6.56,6.55h0v74.92c-16.59,7.23-24.17,26.54-16.94,43.13,5.21,11.96,17.02,19.68,30.06,19.67h301.66c18.13-.17,32.7-15,32.53-33.13-.12-12.83-7.7-24.42-19.42-29.67h0ZM335.38,287.15h65.58v65.58h-65.58v-65.58ZM217.34,287.15h65.58v65.58h-65.58v-65.58ZM99.3,287.15h65.58v65.58h-65.58v-65.58ZM400.96,405.19H99.3c-10.87-.08-19.61-8.96-19.52-19.83.08-10.75,8.78-19.44,19.52-19.52h301.66c10.87.13,19.57,9.05,19.44,19.91-.13,10.68-8.76,19.31-19.44,19.44Z"/>
        <path class="cls-2" d="M123.78,378.96c-3.62.08-6.49,3.08-6.41,6.7.08,3.51,2.9,6.34,6.41,6.41,3.62-.08,6.49-3.08,6.41-6.7-.08-3.51-2.9-6.34-6.41-6.41Z"/>
        <path class="cls-2" d="M174.38,378.96c-3.62.11-6.46,3.14-6.35,6.76.11,3.46,2.89,6.24,6.35,6.35,3.62-.11,6.46-3.14,6.35-6.76-.11-3.46-2.89-6.24-6.35-6.35Z"/>
        <path class="cls-2" d="M224.96,378.96c-3.62.11-6.46,3.14-6.35,6.76.11,3.46,2.89,6.24,6.35,6.35,3.62-.11,6.46-3.14,6.35-6.76-.11-3.46-2.89-6.24-6.35-6.35Z"/>
        <path class="cls-2" d="M275.56,378.96c-3.62.08-6.49,3.08-6.41,6.7.08,3.51,2.9,6.34,6.41,6.41,3.62,0,6.56-2.94,6.56-6.56,0-3.62-2.94-6.56-6.56-6.56Z"/>
        <path class="cls-2" d="M326.14,378.96c-3.62.08-6.49,3.08-6.41,6.7.08,3.51,2.9,6.34,6.41,6.41,3.62,0,6.56-2.94,6.56-6.56,0-3.62-2.94-6.56-6.56-6.56Z"/>
        <path class="cls-2" d="M376.74,378.96c-3.62.08-6.49,3.08-6.41,6.7.08,3.51,2.9,6.34,6.41,6.41,3.62,0,6.56-2.94,6.56-6.56,0-3.62-2.94-6.56-6.56-6.56Z"/>
      </g>
      <g>
        <path class="cls-2" d="M197.75,182c7.58-.58,15.34.76,18.48,8.59,3.36,7.72-1.26,14.26-6.99,19.16-2.56,2.56-2.56,6.71,0,9.27,0,0,0,0,0,0l19.6,19.6c2.56,2.56,6.71,2.56,9.27,0h0c4.97-5.78,11.38-10.31,19.17-6.99,7.82,3.08,9.17,10.98,8.59,18.48,0,3.62,2.93,6.56,6.56,6.56h27.71c3.62,0,6.56-2.93,6.56-6.55h0c-.58-7.59.76-15.34,8.59-18.49,7.71-3.36,14.27,1.26,19.16,6.99,2.56,2.56,6.71,2.56,9.27,0,0,0,0,0,0,0l19.6-19.6c2.56-2.56,2.56-6.71,0-9.27,0,0,0,0,0,0-5.77-4.96-10.32-11.39-6.99-19.16,3.09-7.82,10.98-9.18,18.48-8.59,3.62,0,6.56-2.93,6.56-6.56h0v-27.7c0-3.62-2.93-6.56-6.55-6.56h-5.62c-7.74-.11-13.92-6.48-13.81-14.23.05-3.58,1.47-7,3.96-9.56l3.97-3.97c2.54-2.57,2.54-6.71,0-9.28l-19.6-19.6c-2.56-2.56-6.71-2.56-9.27,0l-3.97,3.97c-5.55,5.4-14.43,5.27-19.82-.28-2.5-2.57-3.91-5.99-3.96-9.57v-5.61c0-3.62-2.93-6.56-6.55-6.56h-27.71c-3.62,0-6.56,2.93-6.56,6.55h0v5.62c-.11,7.74-6.47,13.92-14.21,13.82-3.58-.05-7.01-1.47-9.58-3.97l-3.97-3.97c-2.56-2.56-6.71-2.56-9.27,0l-19.6,19.6c-2.54,2.57-2.54,6.71,0,9.28l3.97,3.96c5.4,5.55,5.27,14.43-.29,19.83-2.57,2.49-5.99,3.91-9.56,3.96h-5.62c-3.62,0-6.56,2.93-6.56,6.55h0v27.7c0,3.62,2.93,6.56,6.55,6.56h0ZM204.3,154.29c15-.69,26.6-13.41,25.91-28.41-.29-6.34-2.79-12.38-7.07-17.07l10.34-10.35c11.14,10.1,28.35,9.26,38.45-1.88,4.23-4.67,6.72-10.66,7.02-16.96h14.63c.52,14.93,13.04,26.61,27.97,26.09,6.52-.23,12.74-2.8,17.51-7.25l10.34,10.35c-10.19,10.93-9.59,28.04,1.34,38.23,4.77,4.45,10.99,7.02,17.5,7.25v14.61c-15,.69-26.6,13.4-25.91,28.4.29,6.34,2.79,12.39,7.08,17.08l-10.35,10.35c-11.14-10.1-28.35-9.26-38.45,1.88-4.23,4.67-6.72,10.67-7.02,16.96h-14.63c-.68-15-13.4-26.6-28.39-25.92-6.35.29-12.39,2.79-17.08,7.07l-10.35-10.35c10.12-11.09,9.33-28.28-1.76-38.4-4.69-4.28-10.73-6.78-17.08-7.08v-14.61Z"/>
        <path class="cls-2" d="M286.28,214.06c28.96-.03,52.43-23.5,52.46-52.46-2.64-69.5-102.3-69.48-104.93,0,.03,28.96,23.5,52.43,52.46,52.46ZM286.28,122.25c52,1.65,51.99,77.05,0,78.69-52-1.65-51.99-77.05,0-78.69h0Z"/>
        <path class="cls-2" d="M306.71,152.94h-11.6v-17.1c0-1.75-1.1-3.31-2.74-3.9-1.64-.59-3.48-.08-4.59,1.27l-25.14,30.62c-1.01,1.24-1.23,2.95-.54,4.39.68,1.44,2.14,2.37,3.74,2.37h11.61v17.1c0,1.75,1.1,3.31,2.74,3.9.46.17.93.24,1.39.24,1.22,0,2.4-.54,3.2-1.51l25.13-30.62c1.01-1.24,1.23-2.94.54-4.39-.69-1.45-2.15-2.37-3.75-2.37h0ZM285.71,176.14v-9.68c0-2.28-1.85-4.13-4.13-4.13h-7l12.26-14.93v9.68c0,2.29,1.85,4.13,4.13,4.13h6.99l-12.25,14.93Z"/>
        <path class="cls-2" d="M160.78,80.46c0-2.69,2.19-4.88,4.88-4.88h46.33c2.7,0,4.88,2.19,4.88,4.88s-2.19,4.88-4.88,4.88h-46.33c-2.69,0-4.88-2.19-4.88-4.88Z"/>
        <path class="cls-2" d="M118.63,121.12c0-2.69,2.19-4.88,4.88-4.88h46.32c2.7,0,4.88,2.19,4.88,4.88s-2.19,4.88-4.88,4.88h-46.31c-2.7,0-4.89-2.19-4.89-4.88Z"/>
        <path class="cls-2" d="M169.84,207.3h-46.32c-2.7,0-4.88-2.19-4.88-4.88s2.19-4.88,4.88-4.88h46.32c2.7,0,4.88,2.19,4.88,4.88s-2.19,4.88-4.88,4.88Z"/>
        <path class="cls-2" d="M216.88,243.06c0,2.69-2.19,4.88-4.88,4.88h-46.33c-2.7,0-4.88-2.19-4.88-4.88s2.19-4.88,4.88-4.88h46.33c2.7,0,4.88,2.19,4.88,4.88Z"/>
        <path class="cls-2" d="M198.77,166.65h-33.11c-2.7,0-4.88-2.19-4.88-4.88s2.19-4.88,4.88-4.88h32.93l.18,9.76Z"/>
      </g>
    </g>
  </g>
  <rect class="cls-1" width="500" height="500"/>
</svg>