<?xml version="1.0" encoding="UTF-8"?>
<svg id="Layer_1" data-name="Layer 1" xmlns="http://www.w3.org/2000/svg" viewBox="0 0 500 500">
  <defs>
    <style>
      .cls-1 {
        fill: none;
      }

      .cls-2 {
        fill: #7cc145;
      }
    </style>
  </defs>
  <g>
    <rect class="cls-1" x="66.5" y="66.5" width="366.99" height="366.99"/>
    <path class="cls-2" d="M318.97,283.98c1.82.17,3.6-.65,4.65-2.15,1.05-1.5,1.22-3.45.44-5.1l-18.64-39.48c4.56-1.23,8.64-3.65,12.29-7.29,6.97-6.97,9.49-15.48,7.7-26.02-1.19-7.04,1.57-13.71,7.39-17.85,8.71-6.19,12.95-13.99,12.95-23.84s-4.24-17.65-12.95-23.84c-5.82-4.13-8.58-10.81-7.39-17.85,1.78-10.54-.74-19.05-7.7-26.02-6.97-6.97-15.48-9.49-26.02-7.7-7.04,1.19-13.71-1.57-17.85-7.39-6.19-8.72-13.99-12.95-23.84-12.95s-17.65,4.24-23.84,12.95c-4.14,5.82-10.81,8.59-17.85,7.39-10.54-1.78-19.05.74-26.02,7.7-6.97,6.97-9.49,15.48-7.7,26.02,1.19,7.04-1.57,13.71-7.39,17.85-8.71,6.19-12.95,13.99-12.95,23.84s4.24,17.65,12.95,23.84c5.82,4.14,8.59,10.81,7.39,17.85-1.78,10.54.74,19.05,7.7,26.02,3.73,3.73,7.9,6.17,12.58,7.37l-18.66,39.53c-.78,1.66-.62,3.6.44,5.1,1.05,1.5,2.82,2.32,4.65,2.15l21.47-2.02,13.77,16.59c.98,1.18,2.42,1.84,3.92,1.84.29,0,.59-.03.89-.08,1.8-.32,3.3-1.58,3.91-3.31l14.61-40.9c3.11,1.18,6.48,1.76,10.13,1.76s7.22-.62,10.41-1.87l14.6,40.88c.62,1.72,2.11,2.99,3.91,3.31.3.05.59.08.89.08,1.5,0,2.94-.66,3.92-1.84l13.77-16.59,21.47,2.02ZM218.67,285.29l-9.78-11.78c-1.08-1.3-2.72-1.98-4.4-1.82l-15.24,1.43,16.58-35.13c.81-.09,1.64-.19,2.47-.33,7.04-1.19,13.71,1.57,17.85,7.39,1.53,2.15,3.15,4.02,4.88,5.63l-12.36,34.61h0ZM234.47,239.15c-5.46-7.69-13.77-11.97-22.85-11.97-1.65,0-3.32.14-5.01.43-7.34,1.24-12.45-.21-17.1-4.86-4.65-4.65-6.1-9.76-4.86-17.11,1.86-10.99-2.45-21.4-11.54-27.86-6.07-4.31-8.66-8.96-8.66-15.53s2.59-11.22,8.66-15.53c9.09-6.46,13.4-16.87,11.54-27.86-1.24-7.34.21-12.45,4.86-17.1,4.65-4.65,9.76-6.1,17.1-4.86,10.99,1.86,21.41-2.45,27.86-11.54,4.31-6.07,8.96-8.66,15.53-8.66s11.22,2.59,15.53,8.66c6.45,9.09,16.87,13.4,27.86,11.54,7.34-1.24,12.45.21,17.1,4.86,4.65,4.65,6.1,9.76,4.86,17.1-1.86,10.99,2.45,21.41,11.54,27.86,6.07,4.31,8.66,8.96,8.66,15.53s-2.59,11.22-8.66,15.53c-9.09,6.46-13.4,16.87-11.54,27.86,1.24,7.34-.21,12.45-4.86,17.1-4.65,4.65-9.76,6.1-17.1,4.86-10.99-1.86-21.41,2.45-27.86,11.54-4.31,6.07-8.96,8.66-15.53,8.66s-11.22-2.59-15.53-8.66h0ZM291.38,273.38l-9.78,11.78-12.4-34.71c1.64-1.56,3.19-3.35,4.64-5.4,4.14-5.82,10.81-8.58,17.85-7.39.96.16,1.9.28,2.82.37l16.51,34.97-15.24-1.43c-1.68-.16-3.32.52-4.4,1.82h0ZM312.03,162.25c0-34.2-27.83-62.03-62.03-62.03s-62.03,27.83-62.03,62.03,27.83,62.03,62.03,62.03,62.03-27.83,62.03-62.03h0ZM250,214.09c-28.58,0-51.83-23.25-51.83-51.83s23.25-51.83,51.83-51.83,51.83,23.25,51.83,51.83-23.25,51.83-51.83,51.83ZM290.84,149.16c-.96-2.96-3.48-5.05-6.57-5.43l-18.95-2.38-8.12-17.29c-1.32-2.82-4.08-4.57-7.2-4.57s-5.87,1.75-7.2,4.57l-8.12,17.29-18.95,2.38c-3.09.39-5.61,2.47-6.57,5.43-.96,2.96-.15,6.13,2.12,8.26l13.93,13.07-3.59,18.76c-.59,3.06.62,6.1,3.14,7.93,2.52,1.83,5.78,2.04,8.51.53l16.73-9.21,16.73,9.21c1.21.67,2.53,1,3.84,1,1.64,0,3.26-.52,4.66-1.53,2.52-1.83,3.72-4.87,3.14-7.93l-3.59-18.76,13.93-13.07c2.27-2.13,3.08-5.3,2.12-8.26h0ZM265.77,164.96c-1.27,1.19-1.85,2.96-1.52,4.68l3.22,16.83-15.01-8.26c-1.53-.84-3.39-.84-4.92,0l-15.01,8.26,3.22-16.83c.33-1.72-.24-3.48-1.52-4.68l-12.5-11.72,17-2.14c1.73-.22,3.23-1.31,3.98-2.89l7.29-15.51,7.29,15.51c.74,1.58,2.24,2.67,3.98,2.89l17,2.14-12.5,11.72h0ZM206.92,321.93c-4.39-14.92-15.3-23.29-27.93-32.97-13.74-10.53-29.3-22.46-43.29-46.66-3.19-5.96-9.14-9.57-15.93-9.66-4.3-.05-8.29,1.31-11.49,3.81-3.76-23.85-6.04-56.55-6.04-70.38,0-11.67-6.72-18.25-13.37-19.59-7.28-1.46-14.19,2.85-17.6,11-4.74,11.31-5.25,55.88-4.47,77.23.72,19.72,2.06,35.19,12.81,54.81,5.11,9.32,11.37,18.39,17.42,27.17,2.54,3.69,4.95,7.17,7.16,10.53,9.66,14.64,16.18,26.76,18.01,39.9-5.39,1.11-9.99,5.15-11.51,10.82l-7.2,26.88c-.35,1.31-.17,2.7.51,3.87.68,1.17,1.79,2.02,3.09,2.37l83.1,22.27c.43.12.88.17,1.32.17.89,0,1.77-.23,2.55-.68,1.17-.68,2.02-1.79,2.37-3.09l7.2-26.88c1.65-6.14-.79-12.43-5.63-15.99,10.55-29.89,13.29-49.99,8.9-64.91h0ZM193.8,400.19l-5.88,21.96-73.25-19.63,5.88-21.96c.69-2.58,3.35-4.11,5.92-3.42l63.91,17.12c2.58.69,4.11,3.35,3.42,5.92ZM188.49,383.21l-55.87-14.97c-1.84-17.92-11.17-33.41-19.9-46.64-2.27-3.45-4.71-6.97-7.28-10.7-5.91-8.56-12.01-17.41-16.87-26.28-9.7-17.69-10.88-31.39-11.56-50.28-.97-26.72.45-65.2,3.69-72.92,1.5-3.57,3.81-5.42,6.19-4.94,2.5.5,5.19,3.72,5.19,9.59,0,18.32,3.63,66.07,9.56,89.13h0c2.84,20.73,26.56,48.28,37.14,55.02,2.37,1.51,5.52.81,7.04-1.56s.81-5.52-1.56-7.04c-5.36-3.42-15.52-14.19-23.23-26.3-8.02-12.59-11.3-23.46-8.56-28.35,1.47-2.63,4.18-4.15,7.2-4.14,3.03.04,5.68,1.65,7.09,4.32.03.06.06.11.09.17,15.02,26.02,32.18,39.17,45.96,49.73,12.13,9.3,20.9,16.02,24.35,27.75,3.69,12.54.94,31.15-8.65,58.41h0ZM428.73,157.47c-3.41-8.14-10.32-12.46-17.6-11-6.66,1.34-13.37,7.91-13.37,19.59,0,13.83-2.27,46.53-6.04,70.37-3.2-2.5-7.19-3.86-11.49-3.8-6.79.09-12.74,3.69-15.93,9.66-13.99,24.21-29.56,36.14-43.29,46.66-12.63,9.68-23.54,18.04-27.93,32.97-4.39,14.92-1.65,35.02,8.9,64.91-4.84,3.56-7.28,9.85-5.63,15.99l7.2,26.88c.35,1.31,1.2,2.42,2.37,3.09.78.45,1.66.68,2.55.68.44,0,.89-.06,1.32-.17l83.1-22.27c1.31-.35,2.42-1.2,3.09-2.37.68-1.17.86-2.56.51-3.87l-7.2-26.88c-1.52-5.67-6.12-9.7-11.51-10.82,1.83-13.14,8.35-25.26,18.01-39.9,2.22-3.36,4.62-6.84,7.16-10.53,6.05-8.77,12.31-17.84,17.42-27.17,10.75-19.61,12.09-35.09,12.81-54.81.78-21.35.27-65.93-4.47-77.23h0ZM379.45,380.57l5.88,21.96-73.25,19.63-5.88-21.96c-.69-2.58.84-5.23,3.42-5.92l63.91-17.12c.42-.11.84-.17,1.25-.17,2.13,0,4.09,1.43,4.67,3.58h0ZM423.01,234.33c-.69,18.89-1.87,32.59-11.57,50.28-4.86,8.87-10.97,17.72-16.88,26.28-2.58,3.73-5.01,7.26-7.28,10.7-8.73,13.23-18.07,28.72-19.9,46.64l-55.87,14.97c-9.59-27.25-12.34-45.87-8.65-58.41,3.45-11.73,12.22-18.45,24.35-27.75,13.79-10.57,30.94-23.72,45.96-49.73.03-.06.06-.11.09-.17,1.41-2.67,4.06-4.28,7.09-4.32,3.05,0,5.72,1.51,7.2,4.14,2.75,4.9-.53,15.76-8.56,28.35-7.71,12.11-17.87,22.88-23.23,26.3-2.37,1.51-3.07,4.66-1.56,7.04,1.51,2.37,4.66,3.07,7.04,1.56,10.58-6.74,34.3-34.28,37.14-55.02h0c5.93-23.06,9.56-70.81,9.56-89.13,0-5.88,2.69-9.09,5.19-9.59,2.38-.48,4.69,1.37,6.19,4.94,3.23,7.72,4.66,46.2,3.69,72.92h0ZM343.22,120.49c-1.41-2.44-.57-5.56,1.87-6.96l12.55-7.25c2.44-1.41,5.56-.57,6.96,1.87,1.41,2.44.57,5.56-1.87,6.96l-12.55,7.25c-.8.46-1.68.68-2.54.68-1.76,0-3.47-.91-4.42-2.55h0ZM362.73,209.4c2.44,1.41,3.27,4.52,1.87,6.96-.94,1.64-2.66,2.55-4.42,2.55-.87,0-1.74-.22-2.54-.68l-12.55-7.25c-2.44-1.41-3.27-4.52-1.87-6.96,1.41-2.44,4.52-3.27,6.96-1.87l12.55,7.25ZM359.51,157.15h14.49c2.82,0,5.1,2.28,5.1,5.1s-2.28,5.1-5.1,5.1h-14.49c-2.82,0-5.1-2.28-5.1-5.1s2.28-5.1,5.1-5.1ZM149.82,202.15c2.44-1.41,5.56-.57,6.96,1.87,1.41,2.44.57,5.56-1.87,6.96l-12.55,7.25c-.8.46-1.68.68-2.54.68-1.76,0-3.47-.91-4.42-2.55-1.41-2.44-.57-5.56,1.87-6.96l12.55-7.25ZM120.91,162.25c0-2.82,2.28-5.1,5.1-5.1h14.49c2.82,0,5.1,2.28,5.1,5.1s-2.28,5.1-5.1,5.1h-14.49c-2.82,0-5.1-2.28-5.1-5.1ZM135.41,108.15c1.41-2.44,4.53-3.27,6.96-1.87l12.55,7.25c2.44,1.41,3.27,4.52,1.87,6.96-.94,1.64-2.66,2.55-4.42,2.55-.87,0-1.74-.22-2.54-.68l-12.55-7.25c-2.44-1.41-3.27-4.52-1.87-6.96Z"/>
  </g>
  <rect class="cls-1" width="500" height="500"/>
</svg>