<svg width="360" height="96" viewBox="0 0 360 96" fill="none" xmlns="http://www.w3.org/2000/svg" role="img" aria-labelledby="logo-title logo-desc" preserveAspectRatio="xMidYMid meet">
  <title id="logo-title">QRCOPAR</title>
  <desc id="logo-desc">QRCOPAR AgroFiber Private Limited logo</desc>
  <g stroke="#25AEB4" stroke-width="7.5" stroke-linecap="round" stroke-linejoin="round">
    <path d="M67.5 18.5c-17.6 0-31.3 7.8-40.8 21.2 9.5 13.3 23.2 21 40.8 21s31.3-7.7 40.8-21c-9.5-13.4-23.2-21.2-40.8-21.2Z"/>
    <path d="M108.3 39.7l13.8-15.5"/>
    <path d="M108.3 39.7l13.8 15.5"/>
    <path d="M43.8 55.5c-12.8 10.4-19.5 22.2-20.2 35.5 16-.4 29.2-6.1 39.4-17.2"/>
    <path d="M90.8 73.8c10.2 11.1 23.3 16.8 39.4 17.2-.7-13.3-7.5-25.1-20.2-35.5"/>
    <path d="M63.2 73.8c-1.2 6.6-1.2 12.4 0 17.2"/>
    <path d="M90.8 73.8c1.2 6.6 1.2 12.4 0 17.2"/>
  </g>
  <text x="152" y="48" fill="#17383D" font-family="Inter, Arial, Helvetica, sans-serif" font-size="34" font-weight="700" letter-spacing="1.5">QRCOPAR</text>
  <text x="154" y="72" fill="#25AEB4" font-family="Inter, Arial, Helvetica, sans-serif" font-size="12" font-weight="700" letter-spacing="2.4">AGROFIBER PVT LTD</text>
</svg>
