<svg width="980" height="260" viewBox="0 0 980 260" fill="none" xmlns="http://www.w3.org/2000/svg" role="img" aria-labelledby="title desc">
  <title id="title">QRCOPAR AgroFiber Pvt Ltd</title>
  <desc id="desc">QRCOPAR AgroFiber logo with teal circular fiber mark and dark wordmark.</desc>
  <g transform="translate(42 20)" stroke="#22A7AD" stroke-width="14" stroke-linecap="round" stroke-linejoin="round">
    <path d="M103 128C54 97 54 58 103 27C152 58 152 97 103 128Z"/>
    <path d="M103 128C150 157 150 194 103 222C56 194 56 157 103 128Z"/>
    <path d="M178 128C130 97 130 58 178 27C226 58 226 97 178 128Z"/>
    <path d="M178 128C225 157 225 194 178 222C131 194 131 157 178 128Z"/>
    <path d="M62 124C49 83 62 48 92 25"/>
    <path d="M218 124C231 83 218 48 188 25"/>
    <path d="M141 13C184 13 224 30 251 59C224 88 184 105 141 105C98 105 58 88 31 59C58 30 98 13 141 13Z"/>
    <path d="M243 31L275 77"/>
    <path d="M275 31L243 77"/>
  </g>
  <g fill="#14333A">
    <text x="365" y="108" font-family="Inter, Arial, Helvetica, sans-serif" font-size="72" font-weight="800" letter-spacing="2">QRCOPAR</text>
    <text x="365" y="176" font-family="Inter, Arial, Helvetica, sans-serif" font-size="43" font-weight="800" letter-spacing="3">AGROFIBER PVT LTD</text>
  </g>
</svg>
