<?xml version="1.0" encoding="UTF-8"?>
<svg id="Layer_1" data-name="Layer 1" xmlns="http://www.w3.org/2000/svg" viewBox="0 0 500 500">
  <defs>
    <style>
      .cls-1 {
        fill: none;
      }

      .cls-2 {
        fill: #7cc245;
      }
    </style>
  </defs>
  <g>
    <path class="cls-2" d="M65.43,133.37h4.41c48.37,0,96.74-.14,145.1.08,20.07.08,38.35,5.66,53.22,19.94,10.12,9.72,16.76,21.5,20.7,34.89.22.74.43,1.5.69,2.23.08.22.28.4.66.93,3.95-6.3,7.81-12.45,11.67-18.61,7.68-12.28,15.39-24.52,22.98-36.85,1.17-1.89,2.38-2.73,4.66-2.66,5.09.17,10.19.06,15.67.06-.39,1.03-.58,1.87-.99,2.58-19.9,34.11-39.74,68.26-59.76,102.3-6.93,11.78-15.42,22.31-26.42,30.66-10.87,8.25-22.98,13.81-36.62,14.19-20.36.58-40.75.15-61.48.15v-88.67h17.38v70.23c.58.42.79.71.99.7,16.56-.32,33.38,2.37,49.61-1.5,47.65-11.36,55.33-60.25,36.9-87.17-11.31-16.51-27.62-25.6-47.66-25.81-43.53-.47-87.06-.14-130.59-.14-1.41,0-2.82,0-4.65,0v132.55h-16.47v-150.07Z"/>
    <path class="cls-2" d="M105.48,174.91v19.27h47.43v17.91h-64.7v-54.22c.66-.12,1.39-.36,2.12-.36,43,.01,86-.23,129,.17,28.99.28,51.93,27.77,47.91,56.45-3.11,22.15-17.43,38.22-38.96,43.21-4.39,1.01-9.05,1.12-13.59,1.21-10.05.17-20.1.05-30.49.05v-64.03h17.88v46.11c12.1-.17,24.04,2.14,34.41-6.33,10.47-8.55,15.53-21.93,12.28-34.48-3.19-12.27-14.86-22.49-27.9-24.32-2.7-.37-5.45-.61-8.17-.61-34.11-.04-68.23-.03-102.34-.03h-4.86Z"/>
    <path class="cls-2" d="M345.68,150.97c22.11,35.99,43.91,71.47,66,107.43h-90.99v-17.42h58.9c-11.49-18.72-22.53-36.72-33.81-55.1-.8,1.3-1.47,2.31-2.07,3.37-17.32,30.32-34.66,60.64-51.88,91.02-1.49,2.65-3.13,3.61-6.14,3.5-6.5-.26-13.02-.09-20.45-.09,26.95-44.45,53.52-88.29,80.44-132.71"/>
    <path class="cls-2" d="M424.18,265.43c-26.2-44.07-52.15-87.71-78.51-132.04,6.45,0,12.14-.16,17.81.13,1.12.06,2.45,1.65,3.19,2.85,16.56,26.71,33.05,53.45,49.56,80.18,5.75,9.32,11.46,18.67,17.33,27.92,1.29,2.04,1.38,3.57.06,5.61-3.18,4.89-6.13,9.94-9.43,15.35"/>
    <polygon class="cls-2" points="153.11 220.21 153.11 237.33 105.48 237.33 105.48 283.35 88.26 283.35 88.26 220.21 153.11 220.21"/>
    <path class="cls-2" d="M423.9,265.89c-3.39,5.63-6.4,10.8-9.62,15.85-.58.92-2,1.85-3.04,1.85-30.06.11-60.12.08-90.53.08v-17.78h103.19Z"/>
    <path class="cls-2" d="M246.99,365.66c-4.5,0-8.13.13-11.73-.09-.95-.06-2.03-1.01-2.7-1.85-3.01-3.76-5.79-7.73-8.89-11.41-1.07-1.27-2.83-1.96-4.28-2.91-.34.27-.67.54-1.01.81v15.26h-10.71v-42.8c8.28.39,16.59.38,24.79,1.32,4.35.5,7.36,3.83,8.16,8.45.86,4.96-.46,9.29-4.26,12.72-.95.86-2.08,1.55-3.47,2.58,4.54,5.77,9.02,11.46,14.1,17.92M218.38,342.5c4.08-.18,8.27.82,10.5-3.12.9-1.59.93-4.75-.09-6.17-2.56-3.59-6.65-2.33-10.41-2.21v11.5Z"/>
    <path class="cls-2" d="M371.54,366.13v-43.58c8.09.51,16.1.3,23.82,1.67,8.74,1.57,14.31,10.19,14.34,19.96.02,9.9-5.66,18.64-14.53,20.23-7.61,1.37-15.49,1.18-23.62,1.71M382.42,357.31c5.67.7,10.87.66,14.25-4.81,2.91-4.7,2.65-12.71-.53-17.09-2.79-3.82-8.04-5.33-13.72-3.9v25.8Z"/>
    <path class="cls-2" d="M247.79,344.08c.3-16.33,12.25-25.46,27.56-21.05,8.57,2.47,13.56,9.96,13.88,20.85.33,11.3-5.57,20.12-14.8,22.12-15.61,3.38-26.94-5.93-26.64-21.91M278.7,344.74c-.91-3.45-1.49-6.77-2.69-9.85-1.24-3.19-4.11-4.61-7.46-4.72-3.45-.1-6.14,1.6-7.55,4.61-2.98,6.33-3.2,12.92.03,19.16,3.25,6.27,11.44,6.29,14.81.05,1.48-2.75,1.92-6.06,2.87-9.25"/>
    <path class="cls-2" d="M111.74,357.07h-5.68c-6.89,0-6.85.01-9.39,6.44-.35.88-1.4,2.01-2.21,2.09-2.81.25-5.66.09-9.03.09,2.34-7.03,4.47-13.55,6.66-20.03,2.25-6.66,4.67-13.25,6.77-19.96.69-2.18,1.7-2.87,3.87-2.74,2.86.17,5.73.05,8.76.05,4.79,14.15,9.53,28.14,14.41,42.54-3.71,0-7.54,1.06-9.98-.31-2.16-1.22-2.76-5.18-4.17-8.16M105.91,336.42c-.25-.03-.5-.06-.75-.09-1.28,4.13-2.56,8.27-3.91,12.65h8.45c-1.34-4.45-2.56-8.51-3.79-12.57"/>
    <path class="cls-2" d="M179.81,352.27v13.13h-10.79v-41.89c7.33,0,14.66-.68,21.79.19,7.51.92,10.94,5.61,10.99,12.48.05,7.51-4.29,13.41-11.3,14.88-3.29.69-6.71.79-10.68,1.22M179.89,343.56c3.79.26,7.85,1.01,9.81-2.9.98-1.95.92-5.45-.23-7.21-2.15-3.26-6.02-2.71-9.58-2.3v12.42Z"/>
    <polygon class="cls-2" points="346.25 346.73 346.25 357.44 363.86 357.44 363.86 365.45 335.52 365.45 335.52 323.24 363.92 323.24 363.92 331.13 346.37 331.13 346.37 338.63 362.5 338.63 362.5 346.73 346.25 346.73"/>
    <path class="cls-2" d="M130.52,365.46v-42.04c7.19,0,14.24-.61,21.15.16,7.47.82,11.4,5.75,11.57,12.49.18,7.31-4.61,13.65-11.67,15.05-3.3.64-6.7.74-10.58,1.14v13.2h-10.47ZM141.3,331.16v12.44c3.77.17,7.75.94,9.62-2.76,1-1.96,1.06-5.37-.03-7.21-2.01-3.41-5.91-2.91-9.59-2.47"/>
    <path class="cls-2" d="M320.49,323.09h10.73c-3.49,10.25-6.91,20.3-10.33,30.34-1.05,3.08-2.26,6.11-3.16,9.22-.63,2.21-1.67,3.11-4.09,3.13-8.08.04-8.09.15-10.73-7.48-3.75-10.8-7.48-21.62-11.21-32.44-.29-.83-.41-1.71-.65-2.73h10.78c2.96,9.13,5.95,18.35,9.3,28.67,3.34-10.22,6.34-19.43,9.37-28.71"/>
  </g>
  <rect class="cls-1" y="0" width="500" height="500"/>
</svg>