<?xml version="1.0" encoding="UTF-8"?>
<svg id="Layer_1" data-name="Layer 1" xmlns="http://www.w3.org/2000/svg" viewBox="0 0 500 500">
  <defs>
    <style>
      .cls-1, .cls-2 {
        fill: none;
      }

      .cls-3 {
        fill: #7cc245;
      }

      .cls-2 {
        stroke: #7cc245;
        stroke-linecap: round;
        stroke-linejoin: round;
        stroke-width: 20.06px;
      }
    </style>
  </defs>
  <g>
    <path class="cls-3" d="M209.65,86.01c2.68.14,8.08,2.2,12.46,3.88,8.21,3.14,17.52,6.69,27.89,6.69s19.68-3.55,27.89-6.69c4.37-1.67,9.78-3.73,12.46-3.87,2.09,1.53,5.84,7.33,8.14,10.88,4.66,7.21,9.95,15.39,18.06,21.29,8.19,5.96,17.66,8.5,26.02,10.74,4.04,1.08,10.68,2.86,12.75,4.35.75,2.42.4,9.19.2,13.32-.44,8.68-.94,18.51,2.21,28.21,3.06,9.42,9.14,16.89,14.51,23.49,2.8,3.44,7.44,9.14,7.99,11.52-.55,2.38-5.19,8.08-7.99,11.52-5.37,6.6-11.45,14.07-14.51,23.49-3.15,9.7-2.65,19.53-2.21,28.21.21,4.13.55,10.9-.2,13.32-2.07,1.49-8.71,3.27-12.75,4.35-8.36,2.24-17.83,4.78-26.02,10.74-8.11,5.9-13.39,14.08-18.06,21.29-2.29,3.54-6.05,9.35-8.13,10.88-2.68-.14-8.08-2.2-12.46-3.87-8.21-3.14-17.52-6.69-27.89-6.69s-19.68,3.55-27.89,6.69c-4.37,1.67-9.78,3.74-12.46,3.88-2.09-1.53-5.84-7.33-8.13-10.88-4.66-7.21-9.95-15.39-18.06-21.29-8.19-5.96-17.66-8.5-26.02-10.74-4.04-1.08-10.68-2.86-12.75-4.35-.75-2.42-.4-9.19-.2-13.31.44-8.68.94-18.51-2.21-28.21-3.06-9.42-9.14-16.89-14.51-23.49-2.8-3.44-7.44-9.14-7.99-11.52.55-2.38,5.19-8.08,7.99-11.52,5.37-6.6,11.45-14.07,14.51-23.49,3.15-9.7,2.65-19.53,2.21-28.21-.21-4.13-.55-10.9.2-13.32,2.07-1.49,8.71-3.27,12.75-4.35,8.36-2.24,17.83-4.78,26.02-10.74,8.11-5.9,13.39-14.08,18.06-21.29,2.29-3.54,6.05-9.35,8.13-10.88M209.38,65.95c-2,0-3.95.26-5.84.88-14.3,4.64-19.98,26.47-31.89,35.14-12.03,8.75-34.51,7.46-43.26,19.49-8.67,11.91-.55,32.85-5.2,47.15-4.48,13.8-23.5,25.91-23.5,41.21s19.02,27.4,23.5,41.2c4.65,14.3-3.47,35.25,5.2,47.15,8.75,12.03,31.23,10.74,43.26,19.49,11.91,8.67,17.58,30.49,31.89,35.14,1.88.61,3.83.88,5.84.88,12.67,0,27.42-10.57,40.62-10.57s27.96,10.57,40.62,10.57c2,0,3.95-.26,5.84-.88,14.31-4.64,19.98-26.47,31.89-35.14,12.03-8.75,34.51-7.46,43.26-19.49,8.67-11.91.55-32.85,5.2-47.15,4.48-13.8,23.5-25.91,23.5-41.21s-19.02-27.4-23.5-41.2c-4.64-14.3,3.47-35.25-5.2-47.15-8.75-12.03-31.23-10.74-43.26-19.49-11.91-8.67-17.58-30.49-31.89-35.14-1.88-.61-3.83-.88-5.84-.88-12.67,0-27.42,10.57-40.62,10.57s-27.96-10.57-40.62-10.57h0Z"/>
    <path class="cls-3" d="M250,167.6c23.27,0,42.2,18.93,42.2,42.2s-18.93,42.2-42.2,42.2-42.2-18.93-42.2-42.2,18.93-42.2,42.2-42.2M250,147.54c-34.39,0-62.26,27.88-62.26,62.26s27.88,62.26,62.26,62.26,62.26-27.88,62.26-62.26-27.88-62.26-62.26-62.26h0Z"/>
    <polyline class="cls-2" points="289.11 348.14 356.92 434.05 363.74 362.87 434.57 372.77 366.75 286.86"/>
    <polyline class="cls-2" points="210.89 348.14 143.08 434.05 136.26 362.87 65.43 372.77 133.25 286.86"/>
  </g>
  <rect class="cls-1" width="500" height="500"/>
</svg>