<?xml version="1.0" encoding="UTF-8"?>
<svg id="Layer_1" data-name="Layer 1" xmlns="http://www.w3.org/2000/svg" viewBox="0 0 500 500">
  <defs>
    <style>
      .cls-1 {
        fill: none;
      }

      .cls-2 {
        fill: #7cc245;
      }
    </style>
  </defs>
  <path class="cls-2" d="M434.57,338.57c0,4.08-3.3,7.38-7.38,7.38H72.91c-4.08,0-7.38-3.3-7.38-7.38s3.3-7.38,7.38-7.38h354.28c4.08,0,7.38,3.3,7.38,7.38ZM427.18,353.33H72.91c-4.08,0-7.38,3.3-7.38,7.38s3.3,7.38,7.38,7.38h354.28c4.08,0,7.38-3.3,7.38-7.38s-3.3-7.38-7.38-7.38ZM427.18,419.76H72.91c-4.08,0-7.38,3.3-7.38,7.38s3.3,7.38,7.38,7.38h354.28c4.08,0,7.38-3.3,7.38-7.38s-3.3-7.38-7.38-7.38ZM102.43,390.24c4.08,0,7.38-3.3,7.38-7.38s-3.3-7.38-7.38-7.38h-14.76c-4.08,0-7.38,3.3-7.38,7.38s3.3,7.38,7.38,7.38h14.76ZM146.71,412.38c4.08,0,7.38-3.3,7.38-7.38s-3.3-7.38-7.38-7.38h-14.76c-4.08,0-7.38,3.3-7.38,7.38s3.3,7.38,7.38,7.38h14.76ZM191,390.24c4.08,0,7.38-3.3,7.38-7.38s-3.3-7.38-7.38-7.38h-14.76c-4.08,0-7.38,3.3-7.38,7.38s3.3,7.38,7.38,7.38h14.76ZM235.28,412.38c4.08,0,7.38-3.3,7.38-7.38s-3.3-7.38-7.38-7.38h-14.76c-4.08,0-7.38,3.3-7.38,7.38s3.3,7.38,7.38,7.38h14.76ZM279.57,390.24c4.08,0,7.38-3.3,7.38-7.38s-3.3-7.38-7.38-7.38h-14.76c-4.08,0-7.38,3.3-7.38,7.38s3.3,7.38,7.38,7.38h14.76ZM323.85,412.38c4.08,0,7.38-3.3,7.38-7.38s-3.3-7.38-7.38-7.38h-14.76c-4.08,0-7.38,3.3-7.38,7.38s3.3,7.38,7.38,7.38h14.76ZM368.14,390.24c4.08,0,7.38-3.3,7.38-7.38s-3.3-7.38-7.38-7.38h-14.76c-4.08,0-7.38,3.3-7.38,7.38s3.3,7.38,7.38,7.38h14.76ZM412.42,412.38c4.08,0,7.38-3.3,7.38-7.38s-3.3-7.38-7.38-7.38h-14.76c-4.08,0-7.38,3.3-7.38,7.38s3.3,7.38,7.38,7.38h14.76ZM200.54,321.65c2.87,2.88,7.52,2.9,10.41.03,0,0,.02-.02.03-.03l120.26-120.26v19.09c0,4.08,3.3,7.38,7.38,7.38s7.38-3.3,7.38-7.38v-36.9c0-2.98-1.8-5.67-4.56-6.81-.89-.37-1.85-.57-2.82-.57h-36.9c-4.08,0-7.38,3.3-7.38,7.38s3.3,7.38,7.38,7.38h19.09l-115.04,115.04-127.64-127.64c-2.83-2.93-7.5-3.01-10.44-.18-2.93,2.83-3.01,7.5-.18,10.44.06.06.12.12.18.18l132.85,132.85ZM222.68,255.22c2.87,2.88,7.52,2.9,10.41.03,0,0,.02-.02.03-.03,2.88-2.88,2.88-7.55,0-10.44l-66.43-66.43c-2.83-2.93-7.5-3.01-10.44-.18-2.93,2.83-3.01,7.5-.18,10.44.06.06.12.12.18.18l66.43,66.43ZM430.01,176.76c-.9-.37-1.86-.57-2.83-.57h-36.9c-4.08,0-7.38,3.3-7.38,7.38s3.3,7.38,7.38,7.38h19.09l-115.04,115.04-16.92-16.92c-2.83-2.93-7.5-3.01-10.44-.18-2.93,2.83-3.01,7.5-.18,10.44.06.06.12.12.18.18l22.14,22.14c2.87,2.88,7.52,2.9,10.41.03,0,0,.02-.02.03-.03l120.26-120.26v19.09c0,4.08,3.3,7.38,7.38,7.38s7.38-3.3,7.38-7.38v-36.9c0-2.98-1.8-5.67-4.56-6.81h0ZM198.38,146.67c0-18.61,11.48-33.6,21.6-46.84,2.4-3.14,4.77-6.23,6.92-9.29,4.34-6.19,8.38-11.96,8.38-17.68,0-4.08,3.3-7.38,7.38-7.38s7.38,3.3,7.38,7.38c0,5.72,4.04,11.49,7.97,17.07,2.56,3.68,4.93,6.76,7.34,9.91,10.12,13.23,21.6,28.22,21.6,46.82,0,24.42-19.86,44.28-44.28,44.28s-44.28-19.86-44.28-44.28ZM213.14,146.67c0,16.28,13.24,29.52,29.52,29.52s29.52-13.24,29.52-29.52c0-13.6-9.43-25.94-18.56-37.86-2.54-3.32-5.03-6.57-7.29-9.81-1.25-1.77-2.48-3.55-3.67-5.36-1.09,1.67-2.21,3.26-3.26,4.77-2.69,3.82-5.17,7.09-7.71,10.39-9.13,11.92-18.56,24.25-18.56,37.86Z"/>
  <rect class="cls-1" width="500" height="500"/>
</svg>