<?xml version="1.0" encoding="UTF-8"?>
<svg id="Layer_1" data-name="Layer 1" xmlns="http://www.w3.org/2000/svg" viewBox="0 0 500 500">
  <defs>
    <style>
      .cls-1 {
        fill: none;
      }

      .cls-2 {
        fill: #8fc859;
      }
    </style>
  </defs>
  <g>
    <path class="cls-2" d="M361.97,312.02c0-3.31-2.69-6-6-6h-40.99l-50.49-50.49h71.42l28.98,28.98c2.3,2.38,6.1,2.45,8.49.15,2.38-2.3,2.45-6.1.15-8.49-.05-.05-.1-.1-.15-.15l-26.5-26.5,26.5-26.5c2.38-2.3,2.45-6.1.15-8.49-2.3-2.38-6.1-2.45-8.49-.15-.05.05-.1.1-.15.15l-28.98,28.98h-71.42l50.49-50.49h40.99c3.31,0,6-2.69,6-6s-2.69-6-6-6h-37.47v-37.47c0-3.31-2.69-6-6-6s-6,2.69-6,6v40.99l-50.49,50.49v-71.42l28.98-28.98c2.38-2.3,2.45-6.1.15-8.49-2.3-2.38-6.1-2.45-8.49-.15-.05.05-.1.1-.15.15l-26.5,26.5-26.5-26.5c-2.38-2.3-6.18-2.24-8.49.15-2.25,2.33-2.25,6.01,0,8.34l28.98,28.98v71.42l-50.49-50.49v-40.99c0-3.31-2.69-6-6-6s-6,2.69-6,6v37.47h-37.47c-3.31,0-6,2.69-6,6s2.69,6,6,6h40.99l50.49,50.49h-71.42l-28.98-28.98c-2.38-2.3-6.18-2.24-8.49.15-2.25,2.33-2.25,6.01,0,8.34l26.5,26.5-26.5,26.5c-2.38,2.3-2.45,6.1-.15,8.49,2.3,2.38,6.1,2.45,8.49.15.05-.05.1-.1.15-.15l28.98-28.98h71.42l-50.49,50.49h-40.99c-3.31,0-6,2.69-6,6s2.69,6,6,6h37.47v37.47c0,3.31,2.69,6,6,6s6-2.69,6-6v-40.99l50.49-50.49v71.42l-28.98,28.98c-2.38,2.3-2.45,6.1-.15,8.49,2.3,2.38,6.1,2.45,8.49.15.05-.05.1-.1.15-.15l26.5-26.5,26.5,26.5c2.3,2.38,6.1,2.45,8.49.15,2.38-2.3,2.45-6.1.15-8.49-.05-.05-.1-.1-.15-.15l-28.98-28.98v-71.42l50.49,50.49v40.99c0,3.31,2.69,6,6,6s6-2.69,6-6v-37.47h37.47c3.31,0,6-2.69,6-6Z"/>
    <path class="cls-2" d="M163.33,420.32c-2.95,7.4,1.56,13.52,8.02,18.44,4.6,3.52,6.08,5.5,5.35,7.34-.86,2.15-3.38,2.6-7.36,1.02-4.22-1.78-8-4.46-11.07-7.86l-6.35,8.75c3.59,3.67,7.91,6.54,12.68,8.43,13.6,5.42,21.83,1.09,24.68-6.05,2.57-6.44.24-12-6.98-17.94-4.85-4-7.26-5.83-6.36-8.11.73-1.83,3.2-2.16,6.75-.75,3.6,1.47,6.86,3.64,9.6,6.4l6.45-8.27c-3.44-3.35-7.55-5.94-12.06-7.6-11.06-4.41-20.29-1.5-23.35,6.2Z"/>
    <path class="cls-2" d="M220.13,424.38l-19.6,43.89,13.45,1.54,4.18-10.75,13.25,1.52,2.1,11.47,14.19,1.63-10.13-47.31-17.44-2ZM221.03,449.96l3.08-7.73c1.05-2.55,2.1-5.78,3.15-8.33h.14c.51,2.72,1.07,6.15,1.6,8.8l1.51,8.32-9.47-1.06Z"/>
    <path class="cls-2" d="M293.64,440.68l-18.03,2.62-1.14-7.87,19.17-2.78-1.48-10.23-31.89,4.63,6.58,45.34,12.71-1.85-2.47-17.02,18.03-2.62-1.48-10.23Z"/>
    <path class="cls-2" d="M326.23,448.07l-2.92-7.26,17.29-6.94-3.85-9.59-17.29,6.94-2.61-6.5,18.37-7.37-3.85-9.59-30.3,12.16,17.07,42.54,31.24-12.54-3.85-9.59-19.31,7.75Z"/>
    <path class="cls-2" d="M129.38,119.82l-11.52-12.79,13.54-12.21-6.92-7.68-13.55,12.21-5.32-5.92,14.41-12.98-6.92-7.68-23.95,21.59,30.69,34.06,9.55-8.61Z"/>
    <path class="cls-2" d="M162.36,95.5l-8-15.07,2.04-1.09c3.78-2,5.91-1.91,9.76,2.28,2.41,2.8,5.11,5.35,8.04,7.6l11.53-6.13c-1.6-1.15-6.15-6.36-9.74-9.77-2.28-2.7-5.62-4.27-9.15-4.31l-.13-.24c3.42-3.66,4.23-9.06,2.03-13.56-1.67-3.58-5.02-6.08-8.93-6.65-5.7-.2-11.32,1.37-16.11,4.48-4.8,2.49-9.42,5.31-13.83,8.46l21.23,39.94,11.23-5.94ZM145.19,63.17c1.32-.97,2.73-1.82,4.2-2.54,3.84-2.04,6.96-1.69,8.58,1.37,1.62,3.06-.06,6.27-4.5,8.63l-3.36,1.79-4.91-9.25Z"/>
    <path class="cls-2" d="M224.98,73.27l-2.45-10.03-20.21,4.93-1.85-7.59,18.1-4.42-2.45-10.04-18.09,4.42-1.66-6.8,19.22-4.69-2.45-10.04-31.7,7.74,10.86,44.52,32.7-7.98Z"/>
    <path class="cls-2" d="M267.54,72.13l-.17-10.34-20.81.34-.13-7.82,18.63-.3-.17-10.34-18.63.3-.11-7,19.79-.32-.17-10.34-32.64.53.74,45.83,33.66-.54Z"/>
    <path class="cls-2" d="M314.47,72.2l-21.65-5.36.07-.26,28-22.27,1.62-6.53-36.42-9.03-2.52,10.17,19.67,4.87-.07.26-28.55,22.2-1.6,6.46,38.93,9.65,2.52-10.17Z"/>
    <path class="cls-2" d="M348.92,101.52l4.87-9.12-18.36-9.81,3.68-6.9,16.45,8.78,4.87-9.12-16.45-8.78,3.3-6.18,17.47,9.33,4.86-9.12-28.8-15.38-21.6,40.44,29.7,15.87Z"/>
    <path class="cls-2" d="M365.17,114.87l11.47-12.63,1.71,1.55c3.17,2.88,3.79,4.92,1.15,9.96-1.82,3.21-3.3,6.6-4.42,10.12l9.66,8.78c.53-1.9,3.9-7.93,5.9-12.45,1.77-3.05,2.12-6.72.97-10.06l.18-.2c4.6,1.98,9.95.92,13.45-2.66,2.8-2.78,4.02-6.77,3.24-10.64-1.74-5.43-5.11-10.19-9.65-13.64-3.97-3.67-8.2-7.06-12.65-10.13l-30.4,33.45,9.41,8.55ZM389.76,87.81c1.36.92,2.63,1.95,3.8,3.09,3.2,2.92,3.94,5.97,1.6,8.53-2.34,2.56-5.92,2.06-9.64-1.32l-2.8-2.56,7.03-7.75Z"/>
    <path class="cls-2" d="M419.68,132.84c-1.77-2.8-5.48-3.64-8.28-1.87-2.8,1.77-3.64,5.48-1.87,8.28.08.13.17.26.27.39,60.72,88.1,38.53,208.74-49.57,269.46-.39.27-.78.53-1.17.8-2.79,1.79-3.6,5.5-1.81,8.29,1.79,2.79,5.5,3.6,8.29,1.81.09-.06.18-.12.27-.19,94.01-63.8,118.5-191.74,54.7-285.75-.28-.41-.56-.83-.85-1.24h0Z"/>
    <path class="cls-2" d="M140.93,409.92c-88.54-60.08-111.61-180.56-51.53-269.09.26-.39.53-.78.8-1.17,1.99-2.65,1.44-6.41-1.21-8.4-2.65-1.99-6.41-1.44-8.4,1.21-.09.13-.18.26-.27.39-64.49,93.55-40.93,221.66,52.62,286.14.41.28.82.57,1.24.85,2.69,1.94,6.44,1.34,8.38-1.35,1.94-2.69,1.34-6.44-1.35-8.38-.09-.06-.18-.13-.27-.19h0Z"/>
  </g>
  <rect class="cls-1" width="500" height="500"/>
</svg>