<?xml version="1.0" encoding="UTF-8"?>
<svg id="Layer_1" data-name="Layer 1" xmlns="http://www.w3.org/2000/svg" viewBox="0 0 500 500">
  <defs>
    <style>
      .cls-1 {
        fill: none;
      }

      .cls-2 {
        fill: #8fc859;
      }
    </style>
  </defs>
  <g>
    <g>
      <g>
        <path class="cls-2" d="M348.52,243.28h-203.66c-3.41,0-6.23,2.67-6.23,6.08s2.82,6.08,6.23,6.08h203.66c3.26,0,6.08-2.67,6.08-6.08s-2.82-6.08-6.08-6.08ZM348.52,253.66h-203.66c-2.37,0-4.3-1.93-4.3-4.3s1.93-4.3,4.3-4.3h203.66c2.37,0,4.15,1.93,4.15,4.3s-1.78,4.3-4.15,4.3Z"/>
        <path class="cls-2" d="M348.52,243.28h-203.66c-3.41,0-6.23,2.67-6.23,6.08s2.82,6.08,6.23,6.08h203.66c3.26,0,6.08-2.67,6.08-6.08s-2.82-6.08-6.08-6.08ZM348.52,251.74h-203.66c-1.34,0-2.52-1.04-2.52-2.37s1.19-2.37,2.52-2.37h203.66c1.34,0,2.37,1.04,2.37,2.37s-1.04,2.37-2.37,2.37ZM348.52,243.28h-203.66c-3.41,0-6.23,2.67-6.23,6.08s2.82,6.08,6.23,6.08h203.66c3.26,0,6.08-2.67,6.08-6.08s-2.82-6.08-6.08-6.08ZM348.52,251.74h-203.66c-1.34,0-2.52-1.04-2.52-2.37s1.19-2.37,2.52-2.37h203.66c1.34,0,2.37,1.04,2.37,2.37s-1.04,2.37-2.37,2.37ZM348.52,243.28h-203.66c-3.41,0-6.23,2.67-6.23,6.08s2.82,6.08,6.23,6.08h203.66c3.26,0,6.08-2.67,6.08-6.08s-2.82-6.08-6.08-6.08ZM348.52,251.74h-203.66c-1.34,0-2.52-1.04-2.52-2.37s1.19-2.37,2.52-2.37h203.66c1.34,0,2.37,1.04,2.37,2.37s-1.04,2.37-2.37,2.37Z"/>
        <path class="cls-2" d="M356.38,237.35l-17.5-42.42c-2.67-6.68-9.2-10.98-16.32-10.98h-151.74c-7.27,0-13.65,4.3-16.46,10.98l-17.36,42.42c-4.15,2.67-6.53,7.12-6.53,12.01,0,6.08,3.86,11.57,9.64,13.5l13.2,45.98c1.78,5.79,7.12,9.79,13.2,9.79h61.71c6.82,0,12.46-4.75,13.5-11.57l2.67-17.06c0-.59.44-1.04,1.04-1.33.74-.44,1.63-.44,2.67.15.44.15.74.59.89,1.19l2.52,17.06c1.04,6.82,6.68,11.57,13.5,11.57h61.86c5.93,0,11.42-4.01,13.05-9.79l13.35-45.98c4.45-1.63,7.71-5.19,9.05-9.64l.59.59v-4.45c0-4.89-2.52-9.34-6.53-12.01ZM165.48,199.52c.89-2.23,2.97-3.56,5.34-3.56h151.74c2.37,0,4.45,1.33,5.34,3.56l14.54,35.45h-191.5l14.54-35.45ZM326.86,306.77h-61.86c-.89,0-1.48-.59-1.63-1.48l-2.52-17.06c-.74-4.3-3.41-8.16-7.27-10.09-2.23-1.19-4.6-1.78-6.97-1.78s-4.6.59-6.82,1.78c-3.86,1.93-6.68,5.79-7.27,10.09l-2.52,17.06c-.15.89-.89,1.48-1.78,1.48h-61.71c-.74,0-1.48-.45-1.63-1.19l-12.16-41.83h187.79l-12.01,41.83c-.3.74-.89,1.19-1.63,1.19ZM348.52,255.44h-203.66c-3.41,0-6.23-2.67-6.23-6.08s2.82-6.08,6.23-6.08h203.66c3.26,0,6.08,2.67,6.08,6.08s-2.82,6.08-6.08,6.08Z"/>
      </g>
      <g>
        <path class="cls-2" d="M274.2,208.01h-55.11c-2.29,0-4.13,1.85-4.13,4.13s1.85,4.13,4.13,4.13h55.11c2.29,0,4.13-1.85,4.13-4.13s-1.85-4.13-4.13-4.13Z"/>
        <path class="cls-2" d="M274.2,206.2h-55.18c-3.26,0-5.93,2.67-5.93,5.93s2.67,5.93,5.93,5.93h55.18c3.26,0,5.93-2.67,5.93-5.93s-2.67-5.93-5.93-5.93ZM274.2,214.36h-55.18c-1.19,0-2.23-.89-2.23-2.23,0-1.19,1.04-2.22,2.23-2.22h55.18c1.19,0,2.23,1.04,2.23,2.22,0,1.34-1.04,2.23-2.23,2.23Z"/>
      </g>
    </g>
    <path class="cls-2" d="M172.88,430.81c2.25.95,4.79.98,7.05.06,2.27-.91,4.08-2.69,5.04-4.93.47-1.11.72-2.31.73-3.52.01-1.21-.22-2.41-.67-3.53-.45-1.12-1.12-2.14-1.97-3.01-.85-.86-1.86-1.55-2.97-2.03-72.61-30.94-115.71-104.49-107.25-183.05,9.68-89.85,84.91-157,172.96-159.02l-22.75,18.32c-1.85,1.55-3.02,3.76-3.26,6.17-.24,2.4.48,4.8,1.99,6.68,1.51,1.88,3.71,3.09,6.1,3.37,2.4.28,4.81-.39,6.72-1.87l41.89-33.73c.94-.76,1.73-1.69,2.31-2.76.58-1.06.95-2.23,1.08-3.43.13-1.2.02-2.42-.32-3.58-.34-1.16-.91-2.24-1.67-3.19l-33.74-41.88c-1.56-1.82-3.77-2.97-6.15-3.19-2.39-.22-4.77.49-6.64,2-1.87,1.5-3.08,3.68-3.37,6.06-.29,2.38.36,4.78,1.81,6.69l20.79,25.8c-99.39-.38-185.2,74.66-196.07,175.57-9.34,86.68,38.23,167.84,118.35,201.98ZM318.22,85.21c72.58,30.01,117.39,105.58,108.98,183.78-9.69,89.84-84.96,156.94-172.97,159l22.75-18.31c1.85-1.55,3.02-3.76,3.26-6.17.24-2.4-.48-4.8-1.99-6.68-1.51-1.88-3.71-3.09-6.1-3.37-2.4-.28-4.81.39-6.72,1.87l-41.89,33.73c-.94.76-1.73,1.7-2.31,2.76-.58,1.06-.95,2.23-1.08,3.43-.13,1.2-.02,2.42.32,3.58.34,1.16.91,2.24,1.67,3.19l33.74,41.88c.76.94,1.69,1.73,2.76,2.31,1.06.58,2.23.95,3.43,1.08,1.2.13,2.42.02,3.58-.32,1.16-.34,2.24-.91,3.19-1.67,3.96-3.2,4.59-9,1.39-12.96l-20.8-25.82c.25,0,.49.02.74.02,99.05-.01,184.51-74.91,195.36-175.57,9.28-86.27-40.17-169.66-120.26-202.78-2.25-.87-4.75-.83-6.96.11-2.22.95-3.97,2.73-4.9,4.95-.92,2.23-.93,4.73-.03,6.96.9,2.24,2.64,4.03,4.85,5Z"/>
  </g>
  <rect class="cls-1" width="500" height="500"/>
</svg>