<?xml version="1.0" encoding="UTF-8"?>
<svg id="Main_Design" data-name="Main Design" xmlns="http://www.w3.org/2000/svg" viewBox="0 0 500 500">
  <defs>
    <style>
      .cls-1, .cls-2 {
        fill: none;
      }

      .cls-2 {
        stroke: #2d4a1e;
        stroke-linecap: round;
        stroke-linejoin: round;
        stroke-width: 12.5px;
      }
    </style>
  </defs>
  <rect class="cls-1" y="0" width="500" height="500"/>
  <g>
    <path class="cls-2" d="M168.01,260.24c0-60.72,49.22-109.94,109.94-109.94,49.77,0,91.82,33.08,105.37,78.45"/>
    <g>
      <g>
        <path class="cls-2" d="M241.44,106.83s36.38,1.45,36.51,43.48"/>
        <path class="cls-2" d="M179.01,112.71s28.95-33.48,58.81-28.95c23.35,3.54,26.45,19.61,24.76,31.07-1.69,11.46-21.59,20.96-46.02,9.65-24.43-11.31-37.55-11.76-37.55-11.76Z"/>
      </g>
      <g>
        <path class="cls-2" d="M314.47,106.83s-36.38,1.45-36.51,43.48"/>
        <path class="cls-2" d="M376.9,112.71s-28.95-33.48-58.81-28.95c-23.35,3.54-26.45,19.61-24.76,31.07,1.69,11.46,21.59,20.96,46.02,9.65,24.43-11.31,37.55-11.76,37.55-11.76Z"/>
      </g>
    </g>
    <path class="cls-2" d="M230.41,161.09s8.02,29.25,35.67,31.09c16.31,1.09,19.48-15.29,30.13-16.34,10.65-1.05,32.03,12.81,43.35-6.63"/>
    <path class="cls-2" d="M192.67,190.87s25.62,15.44,28.31,31.75-9.81,28.27-9.81,28.27"/>
    <path class="cls-2" d="M367.05,195.85s-10.73,8.83-13.99,18.08c-3.26,9.24-5.85,25.01-18.14,26.09s-46.73-9.24-56.97,35.34"/>
    <rect class="cls-2" x="134.49" y="301.48" width="39.68" height="118.51" transform="translate(-209.87 214.79) rotate(-45)"/>
    <path class="cls-2" d="M136.43,314.77s33.43-41.04,60.07-39.41c26.64,1.63,44.94,19.68,44.94,19.68h67.04s14.02,2.61,14.02,16.2-13.47,16.85-13.47,16.85h-79.56"/>
    <path class="cls-2" d="M322.5,311.23l48.5-50.99s12.5-7.18,24.46,3.15c11.96,10.33,2.72,24.46,2.72,24.46,0,0-60.04,68.02-75.68,72.88-15.65,4.86-86.86.51-98.82,3.23-11.96,2.72-22.56,15.49-22.56,15.49"/>
  </g>
</svg>
