<?xml version="1.0" encoding="UTF-8"?>
<svg id="Main_Design" data-name="Main Design" xmlns="http://www.w3.org/2000/svg" viewBox="0 0 500 500">
  <defs>
    <style>
      .cls-1, .cls-2 {
        fill: none;
      }

      .cls-2 {
        stroke: #ffffff;
        stroke-linecap: round;
        stroke-linejoin: round;
        stroke-width: 12.5px;
      }
    </style>
  </defs>
  <rect class="cls-1" y="0" width="500" height="500"/>
  <g>
    <g>
      <path class="cls-2" d="M96.98,318.76c26.19,57.74,84.34,97.9,151.87,97.9,92.05,0,166.67-74.62,166.67-166.67,0-92.05-74.62-166.67-166.67-166.67-57.13,0-107.54,28.74-137.57,72.55"/>
      <polyline class="cls-2" points="113.01 156.87 141.85 165.83 97.73 206.59 84.49 148 113.01 156.87"/>
    </g>
    <polyline class="cls-2" points="249.74 209.05 281.32 209.05 295.69 159.52 271.66 170.64 250 145.54 228.34 170.64 204.31 159.52 218.68 209.05 250.26 209.05"/>
    <g>
      <path class="cls-2" d="M348.21,314.25h-196.43c-14.51,0-23.73-15.52-16.79-28.27l17.41-31.96c3.35-6.15,9.79-9.97,16.79-9.97h161.61c7,0,13.44,3.83,16.79,9.97l17.41,31.96c6.94,12.74-2.28,28.27-16.79,28.27Z"/>
      <path class="cls-2" d="M350.06,314.25l-14.84,10.83c-8.33,6.08-18.37,9.35-28.68,9.35h-56.55s-56.55,0-56.55,0c-10.31,0-20.35-3.27-28.68-9.35l-14.84-10.83"/>
      <polyline class="cls-2" points="334.69 314.25 315.43 282.78 250 282.78 184.57 282.78 165.31 314.25"/>
    </g>
  </g>
</svg>
