<?xml version="1.0" encoding="UTF-8"?>
<svg id="Layer_1" data-name="Layer 1" xmlns="http://www.w3.org/2000/svg" viewBox="0 0 500 500">
  <defs>
    <style>
      .cls-1 {
        fill: none;
      }

      .cls-2 {
        fill: #8fc859;
      }
    </style>
  </defs>
  <g>
    <path class="cls-2" d="M256.7,114.59c6.3,0,11.4-4.79,11.4-10.69v-24.94c0-5.9-5.11-10.69-11.4-10.69s-11.4,4.79-11.4,10.69v24.94c0,5.9,5.11,10.69,11.4,10.69Z"/>
    <path class="cls-2" d="M324.74,128.89c5.47,2.92,12.43,1.14,15.55-3.99l15.17-24.94c3.12-5.13,1.22-11.66-4.26-14.58-5.47-2.92-12.43-1.14-15.55,3.99l-15.17,24.94c-3.12,5.13-1.21,11.66,4.26,14.58Z"/>
    <path class="cls-2" d="M173.11,124.9c3.12,5.13,10.08,6.91,15.55,3.99,5.47-2.92,7.38-9.45,4.26-14.58l-15.17-24.94c-3.12-5.13-10.08-6.91-15.55-3.99-5.47,2.92-7.38,9.45-4.26,14.58l15.17,24.94Z"/>
    <path class="cls-2" d="M256.7,385.41c-6.3,0-11.4,4.79-11.4,10.69v24.94c0,5.9,5.11,10.69,11.4,10.69s11.4-4.79,11.4-10.69v-24.94c0-5.9-5.11-10.69-11.4-10.69Z"/>
    <path class="cls-2" d="M188.67,371.11c-5.47-2.92-12.43-1.14-15.55,3.99l-15.17,24.94c-3.12,5.13-1.21,11.66,4.26,14.58,5.47,2.92,12.43,1.14,15.55-3.99l15.17-24.94c3.12-5.13,1.21-11.66-4.26-14.58Z"/>
    <path class="cls-2" d="M340.29,375.1c-3.12-5.13-10.09-6.91-15.55-3.99-5.47,2.92-7.38,9.45-4.26,14.58l15.17,24.94c3.12,5.13,10.08,6.91,15.55,3.99,5.47-2.92,7.38-9.45,4.26-14.58l-15.17-24.94Z"/>
    <path class="cls-2" d="M86.46,227.08c-4.61,0-9.11-2.4-11.57-6.7-3.67-6.39-1.47-14.53,4.92-18.2l21.14-12.14c91.95-52.83,206.18-52.8,298.11,0l21.13,12.14c6.39,3.67,8.59,11.82,4.92,18.2-3.66,6.4-11.78,8.63-18.2,4.92l-21.13-12.14c-83.77-48.09-187.82-48.09-271.56,0l-21.14,12.14c-2.09,1.21-4.38,1.77-6.63,1.77Z"/>
    <path class="cls-2" d="M250,341.95c-51.54,0-103.09-13.2-149.05-39.61l-21.14-12.14c-6.39-3.67-8.59-11.81-4.92-18.2,3.67-6.38,11.82-8.6,18.2-4.92l21.14,12.14c83.75,48.08,187.79,48.08,271.56,0l21.13-12.14c6.41-3.68,14.54-1.46,18.2,4.92,3.67,6.38,1.47,14.53-4.92,18.2l-21.13,12.14c-45.96,26.41-97.51,39.61-149.06,39.61Z"/>
  </g>
  <rect class="cls-1" width="500" height="500"/>
</svg>