<?xml version="1.0" encoding="UTF-8"?>
<svg id="Layer_1" data-name="Layer 1" xmlns="http://www.w3.org/2000/svg" viewBox="0 0 500 500">
  <defs>
    <style>
      .cls-1 {
        fill: none;
      }

      .cls-2 {
        fill: #8fc859;
      }
    </style>
  </defs>
  <g>
    <path class="cls-2" d="M299.03,184.13c1.88,3.49,6.69,4.77,10.05,2.68l69.95-41.41c1.67-.98,2.87-2.59,3.35-4.46.48-1.87.2-3.86-.79-5.52l-35.3-59.61c-7.11-12.01-20.18-19.47-34.12-19.47h-98.06c-12.96-1.09-26.44,2.98-33.69,14.45,0,0-26.12,39.3-26.12,39.3l-19.42-8.93c-2.76-1.26-6.01-.69-8.17,1.44-2.16,2.13-2.77,5.38-1.53,8.15l32.46,72.77c1.24,2.79,4.12,4.52,7.14,4.3l84.41-5.62c6.92-.25,9.33-10.11,3.28-13.51,0,0-15.39-9.3-15.39-9.3l24.39-41.6,37.55,66.35ZM220.87,158.21c-2.56,4.24,0,9.14,4.25,10.97,0,0-56.24,3.74-56.24,3.74l-22.51-50.46,7.5,3.45c3.27,1.5,7.12.4,9.12-2.59l29.57-44.49c4.86-7.65,13.24-8.42,21.49-7.95,12.96.1,24.93,7.14,31.35,18.47l7.78,13.74-32.3,55.1h0ZM249.4,70.9h62.76c8.81,0,17.08,4.72,21.58,12.32l31.59,53.34-57.28,33.92-40.05-70.76c-4.68-7.91-11.75-22.71-18.6-28.83Z"/>
    <path class="cls-2" d="M191.55,297.53c-3.68-5.89-13.43-3.03-13.35,3.91l-.34,18-48.14-.37,38.57-65.81c2.06-3.37.79-8.15-2.7-10.03l-70.76-40.01c-3.38-1.99-8.09-.68-9.94,2.78l-33.86,60.45c-6.82,12.17-6.72,27.24.24,39.32l49.11,85.27c5.51,11.73,15.78,21.31,29.25,21.86,0,0,47.01,3.02,47.01,3.02l2,21.35c.39,6.48,9.5,9.04,13.16,3.59,0,0,46.64-64.57,46.64-64.57,1.78-2.47,1.84-5.78.15-8.31l-47.06-70.46h0ZM100.67,339.83c-2.44,4.16-4.24,8.58-5.4,13.13l-31.36-54.45c-4.42-7.66-4.48-17.21-.15-24.93l30.28-54.07,57.94,32.77c-7.58,12.94-44.58,76.06-51.31,87.55ZM191.35,416.62c-.67-5.65.25-14.26-7.56-14.83,0,0-53.22-3.42-53.22-3.42-8.97-.39-13.84-7.21-17.53-14.55-6.48-11.34-6.41-25.33.21-36.61l7.98-13.62,63.73.49c4.92.1,7.93-4.52,7.38-9.12,0,0,31.34,46.92,31.34,46.92l-32.32,44.74h0Z"/>
    <path class="cls-2" d="M450.66,285.94l-20.91-42.34,17.45-12.41c5.42-3.58,3.05-12.75-3.47-13.19,0,0-79.11-8.21-79.11-8.21-3.01-.33-5.95,1.29-7.29,4.04l-37.35,76.08c-3.24,6.12,4.11,13.14,10.07,9.58,0,0,15.7-8.7,15.7-8.7l23.76,41.99-76.13-.58c-3.86-.07-7.51,3.38-7.34,7.36,0,0,.81,81.42.81,81.42-.03,3.92,3.45,7.35,7.38,7.22,0,0,69.15-.84,69.15-.84,13.93-.16,26.92-7.78,33.89-19.88l48.96-85c7.46-10.82,10.74-24.38,4.42-36.55ZM384.65,400.23c-4.41,7.65-12.62,12.47-21.43,12.58l-61.86.75-.66-66.7c9.16-.68,109.42,2.74,115.34-1.11,0,0-31.39,54.49-31.39,54.49ZM437.06,309.24c-6.35,13.66-19.16,24.07-34.7,23.8-.09,0-.18,0-.27,0l-15.74-.12-31.45-55.58c-1.96-3.48-6.37-4.72-9.87-2.79l-1.73.96,24.89-50.7,54.84,5.69c-4.55,3.41-12.49,6.93-9.08,13.98,0,0,23.66,47.91,23.66,47.91,2.65,5.36,2.44,11.66-.54,16.85h0Z"/>
  </g>
  <rect class="cls-1" width="500" height="500"/>
</svg>