<?xml version="1.0" encoding="UTF-8"?>
<svg id="Layer_1" data-name="Layer 1" xmlns="http://www.w3.org/2000/svg" viewBox="0 0 500 500">
  <defs>
    <style>
      .cls-1 {
        fill: none;
      }

      .cls-2 {
        fill: #8fc859;
      }
    </style>
  </defs>
  <path class="cls-2" d="M170.69,68.27c-4.79,0-8.65,3.86-8.65,8.65v38.1c-32.88,1.41-53.07,5.82-66.34,19.06-20.3,20.3-20.28,57.71-20.19,132.29v26.33c-.06,66.88-.09,100.45,19.01,119.55,18.14,18.14,50.65,19.47,112.71,19.47,5.16,0,10.5,0,16.07-.03l13.27-.03c4.79,0,8.65-3.89,8.65-8.65s-3.86-8.65-8.65-8.65l-13.29.03c-67.89.12-101.98.17-116.55-14.39-14.02-14.02-13.99-47.15-13.93-107.29v-26.33c0-32.85-.03-57.97,1.53-76.98h296.9c.98,11.71,1.35,25.79,1.5,42.74.03,4.76,3.89,8.6,8.65,8.6h.06c4.79-.03,8.62-3.96,8.6-8.71-.4-52.46-2.34-85.54-25.56-102.53-13.21-9.69-32.33-13.21-60.91-14.45v-38.13c0-4.79-3.86-8.65-8.65-8.65s-8.65,3.86-8.65,8.65v37.61c-12.66-.2-26.88-.17-42.88-.14-6.55.03-13.38.03-20.57.03s-14.02,0-20.57-.03c-16.04-.03-30.25-.06-42.88.14v-37.61c0-4.79-3.86-8.65-8.65-8.65ZM199.5,131.67c7.13-.01,14.69,0,22.7.02,6.55.03,13.41.03,20.59.03s14.05,0,20.59-.03c60.94-.12,94.54-.2,110.86,11.74,7.59,5.57,12.08,14.59,14.74,28.67H96.54c2.22-11.8,5.77-20.13,11.4-25.75,13.02-13,41.68-14.58,91.57-14.67ZM329.32,241.32c-52.49,0-95.18,42.69-95.18,95.18s42.69,95.18,95.18,95.18,95.18-42.69,95.18-95.18-42.69-95.18-95.18-95.18ZM329.32,258.62c42.94,0,77.87,34.93,77.87,77.87s-34.93,77.87-77.87,77.87-77.87-34.93-77.87-77.87,34.93-77.87,77.87-77.87ZM329.32,293.23c-4.79,0-8.65,3.86-8.65,8.65v34.61c0,2.31.93,4.5,2.54,6.11l24.48,24.49c1.7,1.7,3.9,2.54,6.12,2.54s4.44-.84,6.11-2.54c3.37-3.37,3.37-8.86,0-12.23l-21.95-21.95v-31.03c0-4.79-3.86-8.65-8.65-8.65Z"/>
  <rect class="cls-1" width="500" height="500"/>
</svg>