<?xml version="1.0" encoding="UTF-8"?>
<svg id="Layer_1" data-name="Layer 1" xmlns="http://www.w3.org/2000/svg" viewBox="0 0 500 500">
  <defs>
    <style>
      .cls-1 {
        fill: none;
      }

      .cls-2 {
        fill: #8fc859;
      }
    </style>
  </defs>
  <g>
    <path class="cls-2" d="M67.51,416.83c-4.59,0-8.33-3.74-8.33-8.33v-192.19c0-4.59,3.74-8.33,8.33-8.33h79.51c2.53,0,4.89,1.12,6.47,3.1l38.64,47.81,66.24-38.23-15.5-26.83-91.36-52.57c-9.65-5.55-15.19-14.81-15.22-25.44-.01-11.63,6.48-22.92,16.55-28.74,4.47-2.6,9.28-3.92,14.28-3.92,5.25,0,10.42,1.44,15.36,4.28l103.88,59.78c1.28.73,2.33,1.79,3.05,3.04l22.72,39.34,64.52-37.24c6.2-3.58,13.24-5.48,20.37-5.48,14.6,0,28.19,7.83,35.47,20.43l7.19,12.46c1.12,1.93,1.42,4.18.84,6.33-.57,2.11-1.99,3.95-3.89,5.06l-186.4,107.61c-1.23.71-2.72,1.1-4.22,1.1-.72,0-1.43-.08-2.09-.26-.58-.15-35.58-9.54-35.58-9.54v64.66h224.12c4.59,0,8.33,3.74,8.33,8.33s-3.74,8.33-8.33,8.33h-22.72v37.09c0,4.59-3.74,8.33-8.33,8.33H67.51ZM208.34,400.17h184.75v-28.77h-184.75v28.77ZM75.84,400.17h115.84v-115.34l-48.65-60.19h-67.19v175.53ZM397.06,163.54c-4.24,0-8.41,1.12-12.08,3.24l-181.46,104.77,41.37,11.1,176.22-101.74-3.03-5.25c-4.32-7.47-12.38-12.12-21.02-12.12ZM167.17,99.83c-2.06,0-4.06.56-5.96,1.67-4.87,2.82-8.26,8.71-8.25,14.33,0,4.67,2.31,8.38,6.86,11l93.3,53.69c1.28.72,2.33,1.77,3.06,3.05l16.6,28.76,24.93-14.39-21.59-37.4-101.94-58.66c-2.38-1.37-4.74-2.06-7.02-2.06Z"/>
    <path class="cls-2" d="M250,371.4c-4.59,0-8.33-3.73-8.33-8.32,0-4.97,3.74-8.71,8.33-8.71s8.33,3.74,8.33,8.33c0,4.97-3.74,8.7-8.33,8.7Z"/>
    <path class="cls-2" d="M249.99,371.4c-4.59,0-8.32-3.73-8.32-8.32,0-4.97,3.73-8.71,8.32-8.71s8.33,3.74,8.33,8.33c0,4.97-3.74,8.7-8.33,8.7Z"/>
    <path class="cls-2" d="M303.48,360.43h-106.97v-36.97c0-6.83,5.55-12.38,12.36-12.38h82.49c6.68,0,12.12,5.43,12.12,12.12v37.23ZM208.68,348.31h82.69v-25.12h-82.49l-.2,25.12Z"/>
  </g>
  <rect class="cls-1" width="500" height="500"/>
</svg>