<svg width="39" height="40" viewBox="0 0 39 40" fill="none" xmlns="http://www.w3.org/2000/svg">
<mask id="path-1-inside-1_1_286" fill="white">
<path d="M31.9324 20.5401V7.54915C31.9281 7.36555 31.8797 7.18567 31.7913 7.02467C31.6915 6.86397 31.5555 6.72889 31.3941 6.63024L19.8075 0.134775C19.6503 0.0464129 19.4729 0 19.2925 0C19.1122 0 18.9348 0.0464129 18.7775 0.134775L7.19104 6.63024C7.03004 6.72439 6.89596 6.85836 6.80169 7.01929C6.70742 7.18021 6.65612 7.36268 6.65272 7.54915V20.5401C6.65271 20.7273 6.70258 20.9111 6.79719 21.0726C6.89181 21.2341 7.02775 21.3675 7.19104 21.459L18.7775 27.9545C18.9349 28.0426 19.1122 28.0889 19.2925 28.0889C19.4729 28.0889 19.6502 28.0426 19.8075 27.9545L31.3941 21.459C31.5573 21.3675 31.6933 21.2341 31.7879 21.0726C31.8825 20.9111 31.9324 20.7273 31.9324 20.5401ZM19.2925 2.2615L28.7249 7.54915L25.4162 9.40398L15.9839 4.11632L19.2925 2.2615ZM18.2392 25.2379L8.75936 19.9229V9.34759L18.2392 14.662V25.2379ZM19.2925 12.8368L9.86022 7.54915L13.8298 5.32377L23.2621 10.6114L19.2925 12.8368ZM29.8257 19.9229L20.3459 25.2374V14.6617L29.8257 9.34731V19.9229ZM11.237 14.9635L13.8058 16.4036C13.9265 16.4713 14.0593 16.5145 14.1967 16.5308C14.334 16.5471 14.4733 16.5362 14.6064 16.4986C14.7396 16.4611 14.864 16.3978 14.9727 16.3122C15.0814 16.2266 15.1721 16.1204 15.2397 15.9997C15.3074 15.879 15.3506 15.7462 15.3669 15.6089C15.3832 15.4715 15.3723 15.3323 15.3347 15.1991C15.2972 15.066 15.2339 14.9415 15.1483 14.8328C15.0627 14.7242 14.9565 14.6334 14.8358 14.5658L12.267 13.1257C12.0233 12.9891 11.7353 12.9549 11.4664 13.0307C11.1975 13.1064 10.9697 13.2859 10.8331 13.5296C10.6965 13.7733 10.6623 14.0613 10.738 14.3302C10.8138 14.5991 10.9933 14.8269 11.237 14.9635ZM35.6252 20.3224C34.8513 20.3045 34.1015 20.5919 33.538 21.1226C32.9745 21.6533 32.6425 22.3845 32.614 23.158L32.5059 25.6467C32.0701 25.5159 31.6088 25.4943 31.1627 25.5838C30.7166 25.6734 30.2993 25.8713 29.9478 26.1602L24.9864 30.2236C23.9831 31.1182 23.3088 32.3233 23.0711 33.6462L22.4998 38.1002C22.4689 38.3751 22.5473 38.6513 22.7182 38.8689C22.8891 39.0865 23.1388 39.2282 23.4132 39.2633C23.6877 39.2985 23.965 39.2242 24.1852 39.0566C24.4054 38.889 24.5508 38.6415 24.59 38.3676L25.1592 33.9246C25.3254 33.1312 25.7312 32.4081 26.3217 31.8527L31.2824 27.7903C31.3868 27.7075 31.5131 27.657 31.6458 27.6451C31.7785 27.6332 31.9117 27.6604 32.0292 27.7233C32.1466 27.7862 32.243 27.8821 32.3067 27.9992C32.3703 28.1162 32.3982 28.2494 32.3871 28.3821C32.3785 28.4708 32.3525 28.557 32.3105 28.6356C32.2685 28.7142 32.2113 28.7837 32.1423 28.8402L29.4631 31.0346C29.3516 31.1206 29.2584 31.2282 29.1892 31.3509C29.1199 31.4737 29.076 31.609 29.06 31.749C29.044 31.889 29.0563 32.0308 29.0961 32.1659C29.1358 32.3011 29.2023 32.4269 29.2916 32.5359C29.3809 32.6449 29.4911 32.7349 29.6158 32.8006C29.7405 32.8662 29.8771 32.9062 30.0175 32.9181C30.1578 32.93 30.2992 32.9136 30.4332 32.8699C30.5671 32.8262 30.6909 32.7561 30.7973 32.6637L33.4765 30.4693C33.7752 30.226 34.0198 29.923 34.1946 29.5797C34.3695 29.2365 34.4708 28.8605 34.4921 28.4759L34.7192 23.2359C34.7289 23.0187 34.8233 22.8138 34.9822 22.6652C35.141 22.5166 35.3516 22.436 35.5691 22.4407C35.7866 22.4453 35.9936 22.5349 36.1459 22.6902C36.2982 22.8455 36.3837 23.0542 36.3841 23.2717L36.2902 30.4413C36.2846 30.9052 36.1774 31.3622 35.9761 31.7802C35.7748 32.1982 35.4843 32.567 35.1251 32.8606L31.0189 36.224C29.9929 36.9735 28.6876 39.7508 30.7048 39.9998C30.9718 39.9994 31.2287 39.8976 31.4236 39.7152C31.6184 39.5327 31.7368 39.2831 31.7548 39.0167C31.7701 38.7923 31.8311 38.5734 31.9341 38.3735C32.0371 38.1735 32.1799 37.9967 32.3537 37.854L36.46 34.4904C37.0571 34.0024 37.5399 33.3894 37.8745 32.6947C38.2092 32 38.3875 31.2404 38.397 30.4694L38.491 23.2989C38.498 22.5263 38.2018 21.7819 37.666 21.2253C37.1301 20.6688 36.3974 20.3446 35.6252 20.3224ZM15.418 33.6352C15.1792 32.3161 14.5054 31.115 13.5041 30.2236L8.54336 26.1598C8.19108 25.8722 7.77376 25.6751 7.32782 25.5857C6.88187 25.4964 6.42083 25.5175 5.98492 25.6472L5.87713 23.1717C5.85345 22.397 5.52476 21.6631 4.9626 21.1295C4.40044 20.596 3.6503 20.3061 2.87545 20.3229C2.1006 20.3398 1.36376 20.6619 0.825279 21.2194C0.286802 21.7768 -0.00972164 22.5243 0.000243271 23.2993L0.0940587 30.4694C0.103279 31.2405 0.281524 32.0003 0.616231 32.6951C0.950937 33.3899 1.43396 34.0028 2.03125 34.4907L6.13758 37.855C6.31141 37.9976 6.4542 38.1743 6.55715 38.3742C6.6601 38.5741 6.72104 38.793 6.73622 39.0173C6.75427 39.2836 6.87268 39.5332 7.06756 39.7156C7.26243 39.8979 7.51925 39.9996 7.78616 40C9.80341 39.7542 8.49694 36.9693 7.47206 36.225L3.36588 32.8603C3.00657 32.567 2.716 32.1983 2.51468 31.7804C2.31335 31.3625 2.20617 30.9055 2.2007 30.4417L2.10674 23.2728C2.10714 23.0542 2.1935 22.8445 2.34718 22.689C2.50085 22.5335 2.70952 22.4447 2.92812 22.4417C3.14671 22.4388 3.35771 22.5219 3.51556 22.6731C3.6734 22.8244 3.76542 23.0317 3.77176 23.2502L3.99871 28.4763C4.02272 28.8604 4.12524 29.2355 4.29992 29.5783C4.4746 29.9212 4.71775 30.2246 5.01432 30.4698L7.69354 32.6642C7.79991 32.7566 7.92374 32.8267 8.05769 32.8704C8.19165 32.9141 8.333 32.9305 8.4734 32.9186C8.6138 32.9067 8.75037 32.8667 8.87505 32.8011C8.99972 32.7354 9.10996 32.6454 9.19923 32.5364C9.28851 32.4274 9.35501 32.3016 9.39479 32.1664C9.43457 32.0313 9.44683 31.8895 9.43084 31.7495C9.41485 31.6095 9.37093 31.4741 9.30169 31.3514C9.23246 31.2287 9.1393 31.1211 9.02775 31.0351L6.34895 28.8402C6.21425 28.7248 6.13009 28.5612 6.11448 28.3845C6.09887 28.2077 6.15305 28.0319 6.26543 27.8946C6.3778 27.7574 6.53945 27.6695 6.71577 27.6499C6.89209 27.6303 7.06908 27.6805 7.20887 27.7897L12.169 31.8527C12.7574 32.4049 13.1626 33.124 13.3299 33.9134L13.9012 38.3674C13.9409 38.6409 14.0865 38.8879 14.3065 39.0551C14.5266 39.2223 14.8036 39.2963 15.0777 39.2612C15.3519 39.2261 15.6013 39.0847 15.7722 38.8675C15.9431 38.6503 16.0218 38.3746 15.9913 38.0999L15.418 33.6352Z"/>
</mask>
<path d="M31.9324 20.5401V7.54915C31.9281 7.36555 31.8797 7.18567 31.7913 7.02467C31.6915 6.86397 31.5555 6.72889 31.3941 6.63024L19.8075 0.134775C19.6503 0.0464129 19.4729 0 19.2925 0C19.1122 0 18.9348 0.0464129 18.7775 0.134775L7.19104 6.63024C7.03004 6.72439 6.89596 6.85836 6.80169 7.01929C6.70742 7.18021 6.65612 7.36268 6.65272 7.54915V20.5401C6.65271 20.7273 6.70258 20.9111 6.79719 21.0726C6.89181 21.2341 7.02775 21.3675 7.19104 21.459L18.7775 27.9545C18.9349 28.0426 19.1122 28.0889 19.2925 28.0889C19.4729 28.0889 19.6502 28.0426 19.8075 27.9545L31.3941 21.459C31.5573 21.3675 31.6933 21.2341 31.7879 21.0726C31.8825 20.9111 31.9324 20.7273 31.9324 20.5401ZM19.2925 2.2615L28.7249 7.54915L25.4162 9.40398L15.9839 4.11632L19.2925 2.2615ZM18.2392 25.2379L8.75936 19.9229V9.34759L18.2392 14.662V25.2379ZM19.2925 12.8368L9.86022 7.54915L13.8298 5.32377L23.2621 10.6114L19.2925 12.8368ZM29.8257 19.9229L20.3459 25.2374V14.6617L29.8257 9.34731V19.9229ZM11.237 14.9635L13.8058 16.4036C13.9265 16.4713 14.0593 16.5145 14.1967 16.5308C14.334 16.5471 14.4733 16.5362 14.6064 16.4986C14.7396 16.4611 14.864 16.3978 14.9727 16.3122C15.0814 16.2266 15.1721 16.1204 15.2397 15.9997C15.3074 15.879 15.3506 15.7462 15.3669 15.6089C15.3832 15.4715 15.3723 15.3323 15.3347 15.1991C15.2972 15.066 15.2339 14.9415 15.1483 14.8328C15.0627 14.7242 14.9565 14.6334 14.8358 14.5658L12.267 13.1257C12.0233 12.9891 11.7353 12.9549 11.4664 13.0307C11.1975 13.1064 10.9697 13.2859 10.8331 13.5296C10.6965 13.7733 10.6623 14.0613 10.738 14.3302C10.8138 14.5991 10.9933 14.8269 11.237 14.9635ZM35.6252 20.3224C34.8513 20.3045 34.1015 20.5919 33.538 21.1226C32.9745 21.6533 32.6425 22.3845 32.614 23.158L32.5059 25.6467C32.0701 25.5159 31.6088 25.4943 31.1627 25.5838C30.7166 25.6734 30.2993 25.8713 29.9478 26.1602L24.9864 30.2236C23.9831 31.1182 23.3088 32.3233 23.0711 33.6462L22.4998 38.1002C22.4689 38.3751 22.5473 38.6513 22.7182 38.8689C22.8891 39.0865 23.1388 39.2282 23.4132 39.2633C23.6877 39.2985 23.965 39.2242 24.1852 39.0566C24.4054 38.889 24.5508 38.6415 24.59 38.3676L25.1592 33.9246C25.3254 33.1312 25.7312 32.4081 26.3217 31.8527L31.2824 27.7903C31.3868 27.7075 31.5131 27.657 31.6458 27.6451C31.7785 27.6332 31.9117 27.6604 32.0292 27.7233C32.1466 27.7862 32.243 27.8821 32.3067 27.9992C32.3703 28.1162 32.3982 28.2494 32.3871 28.3821C32.3785 28.4708 32.3525 28.557 32.3105 28.6356C32.2685 28.7142 32.2113 28.7837 32.1423 28.8402L29.4631 31.0346C29.3516 31.1206 29.2584 31.2282 29.1892 31.3509C29.1199 31.4737 29.076 31.609 29.06 31.749C29.044 31.889 29.0563 32.0308 29.0961 32.1659C29.1358 32.3011 29.2023 32.4269 29.2916 32.5359C29.3809 32.6449 29.4911 32.7349 29.6158 32.8006C29.7405 32.8662 29.8771 32.9062 30.0175 32.9181C30.1578 32.93 30.2992 32.9136 30.4332 32.8699C30.5671 32.8262 30.6909 32.7561 30.7973 32.6637L33.4765 30.4693C33.7752 30.226 34.0198 29.923 34.1946 29.5797C34.3695 29.2365 34.4708 28.8605 34.4921 28.4759L34.7192 23.2359C34.7289 23.0187 34.8233 22.8138 34.9822 22.6652C35.141 22.5166 35.3516 22.436 35.5691 22.4407C35.7866 22.4453 35.9936 22.5349 36.1459 22.6902C36.2982 22.8455 36.3837 23.0542 36.3841 23.2717L36.2902 30.4413C36.2846 30.9052 36.1774 31.3622 35.9761 31.7802C35.7748 32.1982 35.4843 32.567 35.1251 32.8606L31.0189 36.224C29.9929 36.9735 28.6876 39.7508 30.7048 39.9998C30.9718 39.9994 31.2287 39.8976 31.4236 39.7152C31.6184 39.5327 31.7368 39.2831 31.7548 39.0167C31.7701 38.7923 31.8311 38.5734 31.9341 38.3735C32.0371 38.1735 32.1799 37.9967 32.3537 37.854L36.46 34.4904C37.0571 34.0024 37.5399 33.3894 37.8745 32.6947C38.2092 32 38.3875 31.2404 38.397 30.4694L38.491 23.2989C38.498 22.5263 38.2018 21.7819 37.666 21.2253C37.1301 20.6688 36.3974 20.3446 35.6252 20.3224ZM15.418 33.6352C15.1792 32.3161 14.5054 31.115 13.5041 30.2236L8.54336 26.1598C8.19108 25.8722 7.77376 25.6751 7.32782 25.5857C6.88187 25.4964 6.42083 25.5175 5.98492 25.6472L5.87713 23.1717C5.85345 22.397 5.52476 21.6631 4.9626 21.1295C4.40044 20.596 3.6503 20.3061 2.87545 20.3229C2.1006 20.3398 1.36376 20.6619 0.825279 21.2194C0.286802 21.7768 -0.00972164 22.5243 0.000243271 23.2993L0.0940587 30.4694C0.103279 31.2405 0.281524 32.0003 0.616231 32.6951C0.950937 33.3899 1.43396 34.0028 2.03125 34.4907L6.13758 37.855C6.31141 37.9976 6.4542 38.1743 6.55715 38.3742C6.6601 38.5741 6.72104 38.793 6.73622 39.0173C6.75427 39.2836 6.87268 39.5332 7.06756 39.7156C7.26243 39.8979 7.51925 39.9996 7.78616 40C9.80341 39.7542 8.49694 36.9693 7.47206 36.225L3.36588 32.8603C3.00657 32.567 2.716 32.1983 2.51468 31.7804C2.31335 31.3625 2.20617 30.9055 2.2007 30.4417L2.10674 23.2728C2.10714 23.0542 2.1935 22.8445 2.34718 22.689C2.50085 22.5335 2.70952 22.4447 2.92812 22.4417C3.14671 22.4388 3.35771 22.5219 3.51556 22.6731C3.6734 22.8244 3.76542 23.0317 3.77176 23.2502L3.99871 28.4763C4.02272 28.8604 4.12524 29.2355 4.29992 29.5783C4.4746 29.9212 4.71775 30.2246 5.01432 30.4698L7.69354 32.6642C7.79991 32.7566 7.92374 32.8267 8.05769 32.8704C8.19165 32.9141 8.333 32.9305 8.4734 32.9186C8.6138 32.9067 8.75037 32.8667 8.87505 32.8011C8.99972 32.7354 9.10996 32.6454 9.19923 32.5364C9.28851 32.4274 9.35501 32.3016 9.39479 32.1664C9.43457 32.0313 9.44683 31.8895 9.43084 31.7495C9.41485 31.6095 9.37093 31.4741 9.30169 31.3514C9.23246 31.2287 9.1393 31.1211 9.02775 31.0351L6.34895 28.8402C6.21425 28.7248 6.13009 28.5612 6.11448 28.3845C6.09887 28.2077 6.15305 28.0319 6.26543 27.8946C6.3778 27.7574 6.53945 27.6695 6.71577 27.6499C6.89209 27.6303 7.06908 27.6805 7.20887 27.7897L12.169 31.8527C12.7574 32.4049 13.1626 33.124 13.3299 33.9134L13.9012 38.3674C13.9409 38.6409 14.0865 38.8879 14.3065 39.0551C14.5266 39.2223 14.8036 39.2963 15.0777 39.2612C15.3519 39.2261 15.6013 39.0847 15.7722 38.8675C15.9431 38.6503 16.0218 38.3746 15.9913 38.0999L15.418 33.6352Z" fill="#008E90" stroke="white" stroke-width="0.2" mask="url(#path-1-inside-1_1_286)"/>
</svg>
